<svg width="489" height="323" viewBox="0 0 489 323" fill="none" xmlns="http://www.w3.org/2000/svg">
<g filter="url(#filter0_d_481_191543)">
<path d="M27.1998 0.15918L480.048 44.359L455.325 297.655L359.443 314.053L-5.91278e-05 278.835L27.1998 0.15918Z" fill="#FFE786"/>
<path d="M50.1488 27.066L51.506 27.1985L51.2411 29.9129L49.8839 29.7804L50.1488 27.066ZM45.2825 34.8118L46.6396 34.9442L46.3747 37.6586L45.0175 37.5261L45.2825 34.8118ZM46.9046 32.2299L48.2618 32.3623L47.9968 35.0767L46.6396 34.9442L46.9046 32.2299ZM48.5267 29.6479L49.8839 29.7804L49.619 32.4948L48.2618 32.3623L48.5267 29.6479ZM51.7709 24.4841L53.1281 24.6166L52.8632 27.331L51.506 27.1985L51.7709 24.4841ZM61.4459 28.1687L62.8031 28.3011L62.5382 31.0155L61.181 30.8831L61.4459 28.1687ZM56.5796 35.9144L57.9367 36.0469L57.6718 38.7612L56.3146 38.6288L56.5796 35.9144ZM58.2017 33.3325L59.5589 33.465L59.2939 36.1793L57.9367 36.0469L58.2017 33.3325ZM59.8238 30.7506L61.181 30.8831L60.916 33.5974L59.5589 33.465L59.8238 30.7506ZM63.068 25.5868L64.4252 25.7192L64.1603 28.4336L62.8031 28.3011L63.068 25.5868ZM79.8361 31.3338L81.1933 31.4662L80.9283 34.1806L84.9999 34.578L85.2648 31.8636L86.622 31.9961L85.8272 40.1392L84.47 40.0067L84.8674 35.9352L80.7959 35.5378L80.3985 39.6093L79.0413 39.4769L79.8361 31.3338ZM82.8154 28.8843L84.1726 29.0168L84.0401 30.374L82.6829 30.2415L82.8154 28.8843ZM81.3257 30.109L82.6829 30.2415L82.5505 31.5987L81.1933 31.4662L81.3257 30.109ZM84.0401 30.374L85.3973 30.5064L85.2648 31.8636L83.9076 31.7312L84.0401 30.374ZM93.1852 39.4873L91.828 39.3548L92.093 36.6404L93.4502 36.7729L93.1852 39.4873ZM93.1852 39.4873L94.5424 39.6197L94.4099 40.9769L93.0528 40.8445L93.1852 39.4873ZM91.3981 29.722L92.7553 29.8545L92.093 36.6404L90.7358 36.508L91.3981 29.722ZM96.8269 30.2519L98.1841 30.3844L97.5217 37.1703L96.1645 37.0378L96.8269 30.2519ZM94.8073 36.9054L96.1645 37.0378L95.8996 39.7522L94.5424 39.6197L94.8073 36.9054ZM102.43 33.539L103.787 33.6715L103.523 36.3859L107.594 36.7833L107.859 34.0689L109.216 34.2014L108.421 42.3445L107.064 42.212L107.462 38.1405L103.39 37.7431L102.993 41.8146L101.635 41.6822L102.43 33.539ZM105.41 31.0896L106.767 31.2221L106.634 32.5793L105.277 32.4468L105.41 31.0896ZM103.92 32.3143L105.277 32.4468L105.145 33.804L103.787 33.6715L103.92 32.3143ZM106.634 32.5793L107.991 32.7117L107.859 34.0689L106.502 33.9364L106.634 32.5793ZM115.779 41.6926L116.574 33.5494L113.86 33.2845L113.992 31.9273L120.778 32.5896L120.646 33.9468L117.931 33.6819L117.137 41.825L119.851 42.09L119.719 43.4471L112.933 42.7848L113.065 41.4276L115.779 41.6926ZM125.289 33.0299L126.647 33.1624L125.719 42.6627L131.148 43.1926L131.016 44.5498L124.23 43.8874L125.289 33.0299ZM136.322 36.847L137.679 36.9794L137.414 39.6938L141.485 40.0912L141.75 37.3768L143.108 37.5093L142.313 45.6524L140.956 45.52L141.353 41.4484L137.281 41.051L136.884 45.1226L135.527 44.9901L136.322 36.847ZM139.301 34.3975L140.658 34.53L140.526 35.8872L139.168 35.7547L139.301 34.3975ZM137.811 35.6222L139.168 35.7547L139.036 37.1119L137.679 36.9794L137.811 35.6222ZM140.526 35.8872L141.883 36.0196L141.75 37.3768L140.393 37.2444L140.526 35.8872ZM147.884 35.2352L153.312 35.7651L153.18 37.1223L149.108 36.7249L148.843 39.4393L152.915 39.8367L152.782 41.1939L148.711 40.7964L148.314 44.868L152.385 45.2654L152.253 46.6226L146.824 46.0927L147.884 35.2352ZM152.782 41.1939L154.14 41.3263L153.742 45.3979L152.385 45.2654L152.782 41.1939ZM153.18 37.1223L154.537 37.2548L154.272 39.9691L152.915 39.8367L153.18 37.1223ZM160.968 46.1031L161.763 37.96L159.048 37.6951L159.181 36.3379L165.967 37.0002L165.834 38.3574L163.12 38.0925L162.325 46.2356L165.039 46.5005L164.907 47.8577L158.121 47.1954L158.253 45.8382L160.968 46.1031ZM170.478 37.4405L171.835 37.573L170.908 47.0733L176.336 47.6032L176.204 48.9604L169.418 48.298L170.478 37.4405ZM183.562 48.3084L184.357 40.1653L181.642 39.9004L181.775 38.5432L188.561 39.2055L188.428 40.5627L185.714 40.2978L184.919 48.4409L187.634 48.7058L187.501 50.063L180.715 49.4007L180.848 48.0435L183.562 48.3084ZM193.072 39.6458L199.858 40.3081L199.725 41.6653L197.011 41.4004L196.084 50.9007L194.727 50.7682L195.654 41.2679L192.94 41.003L193.072 39.6458ZM204.369 40.7484L205.726 40.8809L205.329 44.9525L203.972 44.82L204.369 40.7484ZM209.798 41.2783L211.155 41.4108L210.758 45.4823L209.4 45.3499L209.798 41.2783ZM206.554 46.4421L207.911 46.5746L207.381 52.0033L206.024 51.8709L206.554 46.4421ZM205.329 44.9525L206.686 45.0849L206.554 46.4421L205.196 46.3097L205.329 44.9525ZM208.043 45.2174L209.4 45.3499L209.268 46.7071L207.911 46.5746L208.043 45.2174Z" fill="#B88D34"/>
<g opacity="0.5">
<path d="M41.2429 76.1779L42.6001 76.3104L42.3352 79.0248L40.978 78.8923L41.2429 76.1779ZM42.3352 79.0248L46.4067 79.4222L46.2743 80.7793L42.2027 80.3819L42.3352 79.0248ZM45.8769 84.8509L45.7444 86.2081L41.6728 85.8107L41.8053 84.4535L45.8769 84.8509ZM41.8053 84.4535L40.4481 84.321L40.5806 82.9638L41.9378 83.0963L41.8053 84.4535ZM46.2743 80.7793L47.6314 80.9118L47.234 84.9834L45.8769 84.8509L46.2743 80.7793ZM42.7326 74.9532L46.8041 75.3506L46.6717 76.7078L42.6001 76.3104L42.7326 74.9532ZM46.6717 76.7078L48.0288 76.8402L47.8964 78.1974L46.5392 78.065L46.6717 76.7078ZM52.8353 75.9393L54.1925 76.0717L53.9276 78.7861L57.9991 79.1835L57.8667 80.5407L53.7951 80.1433L53.2653 85.572L51.9081 85.4396L52.4379 80.0108L51.0807 79.8784L51.2132 78.5212L52.5704 78.6536L52.8353 75.9393ZM53.2653 85.572L55.9796 85.837L55.8472 87.1942L53.1328 86.9292L53.2653 85.572ZM56.1121 84.4798L57.4693 84.6123L57.3368 85.9694L55.9796 85.837L56.1121 84.4798ZM60.9186 83.5788L62.2758 83.7113L62.0108 86.4256L60.6537 86.2932L60.9186 83.5788ZM62.0108 86.4256L64.7252 86.6906L64.5927 88.0478L61.8784 87.7828L62.0108 86.4256ZM64.8577 85.3334L66.2149 85.4659L66.3473 84.1087L62.2758 83.7113L62.4082 82.3541L66.4798 82.7515L66.6123 81.3943L67.9695 81.5268L67.3071 88.3127L65.9499 88.1802L66.0824 86.823L64.7252 86.6906L64.8577 85.3334ZM62.6732 79.6397L66.7447 80.0371L66.6123 81.3943L62.5407 80.9969L62.6732 79.6397ZM73.0409 77.9114L74.3981 78.0439L74.1331 80.7583L78.2047 81.1557L78.0722 82.5128L74.0007 82.1154L73.4708 87.5442L72.1136 87.4117L72.6435 81.983L71.2863 81.8505L71.4188 80.4933L72.7759 80.6258L73.0409 77.9114ZM73.4708 87.5442L76.1852 87.8091L76.0527 89.1663L73.3383 88.9014L73.4708 87.5442ZM76.3176 86.4519L77.6748 86.5844L77.5424 87.9416L76.1852 87.8091L76.3176 86.4519ZM81.5215 81.4794L82.8787 81.6119L82.2164 88.3978L80.8592 88.2653L81.5215 81.4794ZM82.2164 88.3978L84.9308 88.6627L84.7983 90.0199L82.0839 89.755L82.2164 88.3978ZM86.9503 82.0093L88.3075 82.1417L87.5127 90.2848L86.1555 90.1524L86.2879 88.7952L84.9308 88.6627L85.0632 87.3055L86.4204 87.438L86.9503 82.0093ZM96.3907 89.7813L96.2583 91.1385L92.1867 90.741L92.3192 89.3839L96.3907 89.7813ZM92.3192 89.3839L90.962 89.2514L91.0944 87.8942L92.4516 88.0267L92.3192 89.3839ZM97.0531 82.9953L96.9206 84.3525L92.849 83.9551L92.9815 82.5979L97.0531 82.9953ZM91.4918 83.8226L92.849 83.9551L92.7166 85.3123L91.3594 85.1798L91.4918 83.8226ZM92.7166 85.3123L96.7881 85.7097L96.6557 87.0669L92.5841 86.6695L92.7166 85.3123ZM96.6557 87.0669L98.0128 87.1994L97.7479 89.9137L96.3907 89.7813L96.6557 87.0669ZM96.9206 84.3525L98.2778 84.485L98.1453 85.8422L96.7881 85.7097L96.9206 84.3525Z" fill="#735C00"/>
</g>
<path d="M301.009 101.532L302.366 101.664L301.571 109.808L300.214 109.675L301.009 101.532ZM301.571 109.808L305.642 110.205L305.51 111.562L301.438 111.165L301.571 109.808ZM306.437 102.062L307.794 102.194L307 110.337L305.642 110.205L306.437 102.062ZM302.498 100.307L306.57 100.705L306.437 102.062L302.366 101.664L302.498 100.307ZM310.979 103.875L312.336 104.008L312.204 105.365L313.561 105.497L313.428 106.854L312.071 106.722L311.806 109.436L313.163 109.569L313.031 110.926L311.674 110.794L311.276 114.865L309.919 114.733L310.979 103.875ZM313.693 104.14L316.408 104.405L316.275 105.762L313.561 105.497L313.693 104.14ZM316.275 105.762L317.632 105.895L317.102 111.323L315.745 111.191L316.275 105.762ZM313.031 110.926L315.745 111.191L315.613 112.548L312.898 112.283L313.031 110.926ZM322.439 104.994L326.51 105.391L326.378 106.748L322.306 106.351L322.439 104.994ZM320.949 106.218L322.306 106.351L322.174 107.708L326.245 108.105L326.378 106.748L327.735 106.881L327.47 109.595L322.041 109.065L321.776 111.78L320.419 111.647L320.949 106.218ZM321.776 111.78L325.848 112.177L325.716 113.534L321.644 113.137L321.776 111.78ZM325.98 110.82L327.338 110.952L327.205 112.31L325.848 112.177L325.98 110.82ZM331.184 105.847L332.542 105.98L332.409 107.337L333.766 107.469L333.634 108.827L332.277 108.694L331.747 114.123L330.39 113.99L331.184 105.847ZM333.899 106.112L336.613 106.377L336.481 107.734L333.766 107.469L333.899 106.112ZM336.481 107.734L337.838 107.867L337.176 114.653L335.818 114.52L336.481 107.734ZM353.012 105.238L354.369 105.37L354.104 108.084L358.176 108.482L358.043 109.839L353.972 109.442L353.442 114.87L352.085 114.738L352.615 109.309L351.257 109.177L351.39 107.819L352.747 107.952L353.012 105.238ZM353.442 114.87L356.156 115.135L356.024 116.492L353.31 116.228L353.442 114.87ZM356.289 113.778L357.646 113.911L357.514 115.268L356.156 115.135L356.289 113.778ZM362.85 108.938L366.921 109.335L366.789 110.693L362.717 110.295L362.85 108.938ZM366.789 110.693L368.146 110.825L367.616 116.254L366.259 116.121L366.789 110.693ZM361.36 110.163L362.717 110.295L362.188 115.724L360.83 115.591L361.36 110.163ZM362.188 115.724L366.259 116.121L366.127 117.479L362.055 117.081L362.188 115.724ZM381.698 110.778L383.055 110.91L382.393 117.696L381.036 117.564L381.698 110.778ZM387.127 111.308L388.484 111.44L387.689 119.583L384.975 119.318L385.107 117.961L386.465 118.093L387.127 111.308ZM385.107 117.961L383.75 117.829L384.413 111.043L385.77 111.175L385.107 117.961ZM382.393 117.696L383.75 117.829L383.618 119.186L382.261 119.053L382.393 117.696ZM393.158 111.896L397.23 112.294L397.097 113.651L393.026 113.253L393.158 111.896ZM397.097 113.651L398.454 113.783L397.925 119.212L396.567 119.08L397.097 113.651ZM391.669 113.121L393.026 113.253L392.496 118.682L391.139 118.55L391.669 113.121ZM392.496 118.682L396.567 119.08L396.435 120.437L392.363 120.039L392.496 118.682ZM404.618 113.015L404.486 114.372L405.843 114.504L405.71 115.862L404.353 115.729L403.956 119.801L406.67 120.066L406.538 121.423L401.109 120.893L401.241 119.536L402.599 119.668L403.129 114.239L401.771 114.107L401.904 112.75L404.618 113.015ZM408.69 113.412L408.557 114.769L405.843 114.504L405.975 113.147L408.69 113.412ZM412.272 111.022L413.629 111.154L412.966 117.94L414.324 118.072L414.456 116.715L415.813 116.848L415.548 119.562L412.834 119.297L412.569 122.011L411.212 121.879L412.272 111.022ZM417.435 114.266L418.793 114.398L418.66 115.755L417.303 115.623L417.435 114.266ZM415.946 115.49L417.303 115.623L417.17 116.98L415.813 116.848L415.946 115.49ZM415.548 119.562L416.905 119.695L416.773 121.052L415.416 120.919L415.548 119.562ZM416.773 121.052L418.13 121.184L417.998 122.541L416.641 122.409L416.773 121.052ZM436.684 124.878C435.868 124.798 435.116 124.569 434.43 124.19C433.743 123.822 433.151 123.342 432.656 122.751C432.172 122.151 431.811 121.478 431.572 120.731C431.344 119.986 431.269 119.205 431.349 118.389C431.43 117.563 431.654 116.811 432.021 116.133C432.4 115.447 432.884 114.861 433.474 114.376C434.075 113.882 434.748 113.521 435.494 113.292C436.24 113.054 437.022 112.974 437.838 113.054C438.664 113.134 439.415 113.364 440.092 113.741C440.779 114.11 441.365 114.594 441.849 115.194C442.344 115.784 442.706 116.453 442.934 117.198C443.174 117.935 443.253 118.717 443.173 119.543C443.093 120.359 442.864 121.11 442.486 121.797C442.117 122.484 441.632 123.075 441.032 123.569C440.442 124.054 439.774 124.411 439.028 124.639C438.291 124.879 437.51 124.958 436.684 124.878Z" fill="#11AD07"/>
<g opacity="0.5">
<path d="M38.1253 108.168L43.5541 108.698L43.4216 110.055L39.35 109.658L38.9526 113.729L43.0242 114.127L42.7593 116.841L41.4021 116.708L41.5345 115.351L38.8202 115.086L38.4228 119.158L37.0656 119.025L38.1253 108.168ZM43.4216 110.055L44.7788 110.187L44.3814 114.259L43.0242 114.127L43.4216 110.055ZM42.7593 116.841L44.1164 116.973L43.8515 119.688L42.4943 119.555L42.7593 116.841ZM49.3203 112.001L53.3919 112.398L53.2594 113.755L49.1879 113.358L49.3203 112.001ZM47.8307 113.226L49.1879 113.358L49.0554 114.715L53.127 115.113L53.2594 113.755L54.6166 113.888L54.3517 116.602L48.9229 116.072L48.658 118.787L47.3008 118.654L47.8307 113.226ZM48.658 118.787L52.7296 119.184L52.5971 120.541L48.5255 120.144L48.658 118.787ZM52.862 117.827L54.2192 117.959L54.0868 119.317L52.7296 119.184L52.862 117.827ZM62.8323 120.17L62.6999 121.527L58.6283 121.13L58.7608 119.773L62.8323 120.17ZM58.7608 119.773L57.4036 119.64L57.5361 118.283L58.8932 118.416L58.7608 119.773ZM63.4947 113.384L63.3622 114.741L59.2906 114.344L59.4231 112.987L63.4947 113.384ZM57.9335 114.212L59.2906 114.344L59.1582 115.701L57.801 115.569L57.9335 114.212ZM59.1582 115.701L63.2297 116.099L63.0973 117.456L59.0257 117.058L59.1582 115.701ZM63.0973 117.456L64.4545 117.588L64.1895 120.303L62.8323 120.17L63.0973 117.456ZM63.3622 114.741L64.7194 114.874L64.5869 116.231L63.2297 116.099L63.3622 114.741ZM68.1687 113.84L69.5259 113.973L69.3934 115.33L70.7506 115.463L70.6181 116.82L69.261 116.687L68.996 119.402L70.3532 119.534L70.2207 120.891L68.8635 120.759L68.4661 124.83L67.109 124.698L68.1687 113.84ZM70.8831 114.105L73.5974 114.37L73.465 115.728L70.7506 115.463L70.8831 114.105ZM73.465 115.728L74.8222 115.86L74.2923 121.289L72.9351 121.156L73.465 115.728ZM70.2207 120.891L72.9351 121.156L72.8026 122.513L70.0883 122.249L70.2207 120.891ZM79.6287 114.959L83.7002 115.356L83.5678 116.714L79.4962 116.316L79.6287 114.959ZM83.5678 116.714L84.9249 116.846L84.3951 122.275L83.0379 122.142L83.5678 116.714ZM78.139 116.184L79.4962 116.316L78.9663 121.745L77.6091 121.612L78.139 116.184ZM78.9663 121.745L83.0379 122.142L82.9054 123.5L78.8339 123.102L78.9663 121.745ZM88.3742 115.813L89.7314 115.945L89.599 117.302L90.9562 117.435L90.8237 118.792L89.4665 118.659L88.9366 124.088L87.5794 123.956L88.3742 115.813ZM91.0886 116.078L93.803 116.342L93.6705 117.7L90.9562 117.435L91.0886 116.078ZM93.6705 117.7L95.0277 117.832L94.3654 124.618L93.0082 124.486L93.6705 117.7ZM103.243 124.115L103.111 125.472L99.0394 125.074L99.1719 123.717L103.243 124.115ZM99.1719 123.717L97.8147 123.585L97.9471 122.227L99.3043 122.36L99.1719 123.717ZM103.906 117.329L103.773 118.686L99.7017 118.288L99.8342 116.931L103.906 117.329ZM98.3445 118.156L99.7017 118.288L99.5693 119.646L98.2121 119.513L98.3445 118.156ZM99.5693 119.646L103.641 120.043L103.508 121.4L99.4368 121.003L99.5693 119.646ZM103.508 121.4L104.866 121.533L104.601 124.247L103.243 124.115L103.508 121.4ZM103.773 118.686L105.13 118.818L104.998 120.175L103.641 120.043L103.773 118.686ZM109.937 117.917L114.009 118.315L113.876 119.672L109.805 119.274L109.937 117.917ZM108.447 119.142L109.805 119.274L109.672 120.632L113.744 121.029L113.876 119.672L115.233 119.804L114.968 122.519L109.54 121.989L109.275 124.703L107.917 124.571L108.447 119.142ZM109.275 124.703L113.346 125.101L113.214 126.458L109.142 126.06L109.275 124.703ZM113.479 123.743L114.836 123.876L114.703 125.233L113.346 125.101L113.479 123.743Z" fill="#735C00"/>
</g>
<path d="M360.12 147.816L361.477 147.949L361.344 149.306L366.773 149.836L366.641 151.193L359.855 150.531L360.12 147.816ZM366.211 141.56L362.139 141.163L362.272 139.806L366.343 140.203L366.211 141.56ZM366.211 141.56L367.568 141.693L367.303 144.407L365.946 144.275L366.211 141.56ZM361.609 146.592L362.967 146.724L362.834 148.081L361.477 147.949L361.609 146.592ZM360.782 141.03L362.139 141.163L362.007 142.52L360.65 142.388L360.782 141.03ZM364.589 144.142L365.946 144.275L365.813 145.632L364.456 145.499L364.589 144.142ZM363.099 145.367L364.456 145.499L364.324 146.857L362.967 146.724L363.099 145.367ZM375.089 141.057L377.803 141.322L376.744 152.179L375.386 152.047L375.651 149.332L370.223 148.802L370.62 144.731L371.977 144.863L371.712 147.578L375.784 147.975L376.314 142.546L374.956 142.414L375.089 141.057ZM373.599 142.281L374.956 142.414L374.824 143.771L373.467 143.639L373.599 142.281ZM372.11 143.506L373.467 143.639L373.334 144.996L371.977 144.863L372.11 143.506ZM380.59 147.074L387.376 147.736L387.244 149.094L380.458 148.431L380.59 147.074ZM395.294 143.029L398.009 143.294L396.949 154.151L395.592 154.019L395.857 151.304L390.428 150.775L390.825 146.703L392.183 146.836L391.918 149.55L395.989 149.947L396.519 144.519L395.162 144.386L395.294 143.029ZM393.805 144.254L395.162 144.386L395.03 145.743L393.672 145.611L393.805 144.254ZM392.315 145.478L393.672 145.611L393.54 146.968L392.183 146.836L392.315 145.478ZM401.193 144.975L402.55 145.107L402.285 147.822L400.928 147.689L401.193 144.975ZM406.622 145.505L402.55 145.107L402.683 143.75L406.754 144.147L406.622 145.505ZM406.622 145.505L407.979 145.637L407.714 148.351L406.357 148.219L406.622 145.505ZM402.285 147.822L406.357 148.219L406.225 149.576L402.153 149.179L402.285 147.822ZM406.225 149.576L407.582 149.709L407.184 153.78L405.827 153.648L406.225 149.576ZM400.796 149.046L402.153 149.179L401.756 153.25L400.398 153.118L400.796 149.046ZM405.827 153.648L405.695 155.005L401.623 154.608L401.756 153.25L405.827 153.648ZM421.531 145.59L422.888 145.722L422.491 149.794L423.848 149.926L423.716 151.283L422.359 151.151L421.829 156.58L420.471 156.447L421.531 145.59ZM426.563 150.191L427.92 150.324L427.257 157.11L425.9 156.977L426.563 150.191ZM423.981 148.569L426.695 148.834L426.563 150.191L423.848 149.926L423.981 148.569ZM434.083 149.555L433.951 150.912L435.308 151.045L435.176 152.402L433.818 152.269L433.421 156.341L436.135 156.606L436.003 157.963L430.574 157.433L430.707 156.076L432.064 156.209L432.594 150.78L431.237 150.647L431.369 149.29L434.083 149.555ZM438.155 149.952L438.023 151.31L435.308 151.045L435.441 149.688L438.155 149.952ZM446.238 157.592L446.106 158.949L442.034 158.552L442.167 157.195L446.238 157.592ZM442.167 157.195L440.809 157.062L440.942 155.705L442.299 155.837L442.167 157.195ZM446.901 150.806L446.768 152.163L442.697 151.766L442.829 150.409L446.901 150.806ZM441.339 151.633L442.697 151.766L442.564 153.123L441.207 152.991L441.339 151.633ZM442.564 153.123L446.636 153.52L446.503 154.878L442.432 154.48L442.564 153.123ZM446.503 154.878L447.86 155.01L447.595 157.724L446.238 157.592L446.503 154.878ZM446.768 152.163L448.125 152.296L447.993 153.653L446.636 153.52L446.768 152.163Z" fill="#735C00"/>
<g opacity="0.5">
<path d="M34.8661 141.504L41.652 142.167L41.5196 143.524L38.8052 143.259L37.8779 152.759L36.5207 152.627L37.448 143.126L34.7336 142.862L34.8661 141.504ZM47.2858 146.827L44.5715 146.562L44.7039 145.205L48.7755 145.602L48.1132 152.388L50.8275 152.653L50.6951 154.01L43.9091 153.348L44.0416 151.991L46.756 152.256L47.2858 146.827ZM47.6832 142.755L49.0404 142.888L48.908 144.245L47.5508 144.113L47.6832 142.755ZM54.8067 146.191L57.5211 146.456L57.3886 147.813L56.0314 147.68L55.3691 154.466L54.0119 154.334L54.8067 146.191ZM57.3886 147.813L58.7458 147.945L58.0835 154.731L56.7263 154.599L57.3886 147.813ZM60.103 148.078L58.7458 147.945L58.8783 146.588L60.2355 146.721L60.103 148.078ZM60.103 148.078L61.4602 148.21L60.7978 154.996L59.4407 154.864L60.103 148.078ZM66.2667 147.309L70.3382 147.707L70.2058 149.064L66.1342 148.667L66.2667 147.309ZM64.777 148.534L66.1342 148.667L66.0017 150.024L70.0733 150.421L70.2058 149.064L71.5629 149.196L71.298 151.911L65.8693 151.381L65.6043 154.095L64.2471 153.963L64.777 148.534ZM65.6043 154.095L69.6759 154.493L69.5434 155.85L65.4719 155.452L65.6043 154.095ZM69.8084 153.136L71.1655 153.268L71.0331 154.625L69.6759 154.493L69.8084 153.136ZM75.0123 148.163L81.7982 148.825L81.6657 150.183L80.3085 150.05L80.1761 151.407L78.8189 151.275L78.9514 149.918L74.8798 149.52L75.0123 148.163ZM77.4617 151.142L78.8189 151.275L78.6864 152.632L77.3292 152.499L77.4617 151.142ZM75.972 152.367L77.3292 152.499L77.1968 153.857L75.8396 153.724L75.972 152.367ZM74.4824 153.592L75.8396 153.724L75.7071 155.081L81.1359 155.611L81.0034 156.968L74.2175 156.306L74.4824 153.592ZM86.4722 149.282L90.5438 149.679L90.4113 151.036L86.3397 150.639L86.4722 149.282ZM90.4113 151.036L91.7685 151.169L91.2386 156.597L89.8814 156.465L90.4113 151.036ZM84.9826 150.506L86.3397 150.639L85.8099 156.067L84.4527 155.935L84.9826 150.506ZM85.8099 156.067L89.8814 156.465L89.749 157.822L85.6774 157.425L85.8099 156.067ZM95.2178 150.135L96.575 150.268L96.4425 151.625L97.7997 151.757L97.6672 153.114L96.3101 152.982L95.7802 158.411L94.423 158.278L95.2178 150.135ZM97.9322 150.4L100.647 150.665L100.514 152.022L97.7997 151.757L97.9322 150.4ZM100.514 152.022L101.871 152.155L101.209 158.941L99.8517 158.808L100.514 152.022ZM106.678 151.254L110.749 151.651L110.617 153.008L106.545 152.611L106.678 151.254ZM105.188 152.478L106.545 152.611L106.413 153.968L110.484 154.365L110.617 153.008L111.974 153.141L111.709 155.855L106.28 155.325L106.015 158.04L104.658 157.907L105.188 152.478ZM106.015 158.04L110.087 158.437L109.955 159.794L105.883 159.397L106.015 158.04ZM110.219 157.08L111.577 157.212L111.444 158.569L110.087 158.437L110.219 157.08Z" fill="#735C00"/>
</g>
<path d="M296.812 168.441L298.169 168.574L297.374 176.717L296.017 176.584L296.812 168.441ZM297.374 176.717L301.445 177.114L301.313 178.471L297.241 178.074L297.374 176.717ZM301.71 174.4L300.353 174.267L300.486 172.91L303.2 173.175L302.803 177.247L301.445 177.114L301.71 174.4ZM298.301 167.216L302.373 167.614L302.24 168.971L298.169 168.574L298.301 167.216ZM302.24 168.971L303.597 169.103L303.465 170.461L302.108 170.328L302.24 168.971ZM307.047 168.07L308.404 168.202L308.139 170.917L309.496 171.049L309.364 172.406L308.007 172.274L307.344 179.06L305.987 178.927L307.047 168.07ZM312.078 172.671L310.721 172.539L310.853 171.182L312.211 171.314L312.475 168.6L313.833 168.732L312.773 179.59L311.416 179.457L312.078 172.671ZM309.364 172.406L310.721 172.539L310.456 175.253L309.099 175.121L309.364 172.406ZM317.15 169.056L323.935 169.718L323.803 171.076L321.089 170.811L320.161 180.311L318.804 180.178L319.731 170.678L317.017 170.413L317.15 169.056ZM332.151 176.001L332.019 177.358L327.947 176.961L328.08 175.603L332.151 176.001ZM337.223 172.385L338.58 172.518L338.447 173.875L337.09 173.743L337.223 172.385ZM338.712 171.161L342.784 171.558L342.651 172.915L338.58 172.518L338.712 171.161ZM342.651 172.915L344.009 173.048L343.744 175.762L342.386 175.63L342.651 172.915ZM339.672 175.365L342.386 175.63L342.254 176.987L339.54 176.722L339.672 175.365ZM342.254 176.987L343.611 177.119L343.214 181.191L341.857 181.058L342.254 176.987ZM341.857 181.058L341.724 182.416L337.653 182.018L337.785 180.661L341.857 181.058ZM337.785 180.661L336.428 180.529L336.56 179.171L337.917 179.304L337.785 180.661ZM357.296 175.715L358.653 175.847L358.388 178.562L362.459 178.959L362.724 176.245L364.082 176.377L363.287 184.52L361.93 184.388L362.327 180.316L358.255 179.919L357.858 183.99L356.501 183.858L357.296 175.715ZM360.275 173.265L361.632 173.398L361.5 174.755L360.143 174.622L360.275 173.265ZM358.785 174.49L360.143 174.622L360.01 175.98L358.653 175.847L358.785 174.49ZM361.5 174.755L362.857 174.887L362.724 176.245L361.367 176.112L361.5 174.755ZM370.113 176.966L369.98 178.323L371.338 178.455L371.205 179.813L369.848 179.68L369.45 183.752L372.165 184.017L372.032 185.374L366.604 184.844L366.736 183.487L368.093 183.619L368.623 178.19L367.266 178.058L367.398 176.701L370.113 176.966ZM374.184 177.363L374.052 178.72L371.338 178.455L371.47 177.098L374.184 177.363ZM378.858 177.819L381.573 178.084L381.44 179.441L378.726 179.177L378.858 177.819ZM377.369 179.044L378.726 179.177L378.196 184.605L376.839 184.473L377.369 179.044ZM378.196 184.605L380.91 184.87L380.778 186.227L378.064 185.962L378.196 184.605ZM377.931 187.32L382.003 187.717L381.87 189.074L377.799 188.677L377.931 187.32ZM381.043 183.513L382.4 183.645L382.665 180.931L381.308 180.799L381.44 179.441L382.798 179.574L382.93 178.217L384.287 178.349L383.36 187.85L382.003 187.717L382.268 185.003L380.91 184.87L381.043 183.513ZM388.961 178.805L393.033 179.203L392.9 180.56L388.829 180.163L388.961 178.805ZM387.472 180.03L388.829 180.163L388.696 181.52L392.768 181.917L392.9 180.56L394.257 180.692L393.993 183.407L388.564 182.877L388.299 185.591L386.942 185.459L387.472 180.03ZM388.299 185.591L392.37 185.989L392.238 187.346L388.166 186.949L388.299 185.591ZM392.503 184.632L393.86 184.764L393.728 186.121L392.37 185.989L392.503 184.632ZM397.707 179.659L399.064 179.791L398.931 181.149L400.289 181.281L400.156 182.638L398.799 182.506L398.269 187.935L396.912 187.802L397.707 179.659ZM400.421 179.924L403.136 180.189L403.003 181.546L400.289 181.281L400.421 179.924ZM403.003 181.546L404.36 181.679L403.698 188.464L402.341 188.332L403.003 181.546ZM409.432 178.063L410.789 178.196L410.524 180.91L414.595 181.307L414.463 182.665L410.391 182.267L409.862 187.696L408.504 187.563L409.034 182.135L407.677 182.002L407.81 180.645L409.167 180.778L409.432 178.063ZM409.862 187.696L412.576 187.961L412.443 189.318L409.729 189.053L409.862 187.696ZM412.708 186.604L414.066 186.736L413.933 188.093L412.576 187.961L412.708 186.604ZM420.494 183.253L417.78 182.988L417.912 181.631L421.984 182.029L421.322 188.814L424.036 189.079L423.903 190.437L417.118 189.774L417.25 188.417L419.964 188.682L420.494 183.253ZM420.892 179.182L422.249 179.314L422.116 180.671L420.759 180.539L420.892 179.182ZM428.015 182.617L429.372 182.75L429.24 184.107L430.597 184.239L430.465 185.597L429.107 185.464L428.577 190.893L427.22 190.76L428.015 182.617ZM430.729 182.882L433.444 183.147L433.311 184.504L430.597 184.239L430.729 182.882ZM433.311 184.504L434.669 184.637L434.006 191.423L432.649 191.29L433.311 184.504ZM437.72 187.675L439.078 187.807L438.813 190.522L437.456 190.389L437.72 187.675ZM438.813 190.522L441.527 190.787L441.395 192.144L438.68 191.879L438.813 190.522ZM441.66 189.429L443.017 189.562L443.149 188.205L439.078 187.807L439.21 186.45L443.282 186.848L443.414 185.49L444.771 185.623L444.109 192.409L442.752 192.276L442.884 190.919L441.527 190.787L441.66 189.429ZM439.475 183.736L443.547 184.133L443.414 185.49L439.343 185.093L439.475 183.736Z" fill="#735C00"/>
<g opacity="0.5">
<path d="M31.6161 174.851L37.0448 175.381L36.9124 176.738L32.8408 176.341L32.4434 180.412L36.515 180.81L36.3825 182.167L32.3109 181.769L31.9135 185.841L30.5564 185.708L31.6161 174.851ZM36.9124 176.738L38.2696 176.871L37.8722 180.942L36.515 180.81L36.9124 176.738ZM44.1683 178.816L44.0358 180.174L45.393 180.306L45.2606 181.663L43.9034 181.531L43.506 185.602L46.2203 185.867L46.0879 187.224L40.6591 186.695L40.7916 185.337L42.1488 185.47L42.6787 180.041L41.3215 179.909L41.4539 178.551L44.1683 178.816ZM48.2399 179.214L48.1074 180.571L45.393 180.306L45.5255 178.949L48.2399 179.214ZM52.9139 179.67L56.9855 180.067L56.853 181.425L52.7814 181.027L52.9139 179.67ZM51.4242 180.895L52.7814 181.027L52.649 182.384L56.7205 182.782L56.853 181.425L58.2102 181.557L57.9452 184.271L52.5165 183.742L52.2516 186.456L50.8944 186.323L51.4242 180.895ZM52.2516 186.456L56.3231 186.853L56.1907 188.211L52.1191 187.813L52.2516 186.456ZM56.4556 185.496L57.8128 185.629L57.6803 186.986L56.3231 186.853L56.4556 185.496ZM62.8842 182.013L61.527 181.881L61.6595 180.524L63.0167 180.656L63.1491 179.299L64.5063 179.431L64.3739 180.789L68.4454 181.186L68.3129 182.543L64.2414 182.146L63.7115 187.574L66.4259 187.839L66.2934 189.197L60.8647 188.667L60.9971 187.31L62.3543 187.442L62.8842 182.013ZM64.6388 178.074L68.7104 178.472L68.5779 179.829L64.5063 179.431L64.6388 178.074ZM73.1194 181.642L77.191 182.04L77.0585 183.397L72.987 182.999L73.1194 181.642ZM71.6298 182.867L72.987 182.999L72.8545 184.357L76.9261 184.754L77.0585 183.397L78.4157 183.529L78.1508 186.244L72.722 185.714L72.4571 188.428L71.0999 188.296L71.6298 182.867ZM72.4571 188.428L76.5287 188.825L76.3962 190.183L72.3246 189.785L72.4571 188.428ZM76.6611 187.468L78.0183 187.601L77.8859 188.958L76.5287 188.825L76.6611 187.468ZM84.5794 182.761L84.4469 184.118L85.8041 184.25L85.6717 185.608L84.3145 185.475L83.9171 189.547L86.6314 189.812L86.499 191.169L81.0702 190.639L81.2027 189.282L82.5599 189.414L83.0897 183.985L81.7326 183.853L81.865 182.496L84.5794 182.761ZM88.651 183.158L88.5185 184.515L85.8041 184.25L85.9366 182.893L88.651 183.158ZM94.6822 183.747L94.5497 185.104L95.9069 185.236L95.7744 186.594L94.4172 186.461L94.0198 190.533L96.7342 190.798L96.6017 192.155L91.173 191.625L91.3055 190.268L92.6627 190.4L93.1925 184.971L91.8353 184.839L91.9678 183.482L94.6822 183.747ZM98.7537 184.144L98.6213 185.501L95.9069 185.236L96.0394 183.879L98.7537 184.144ZM103.428 184.6L107.499 184.998L107.367 186.355L103.295 185.958L103.428 184.6ZM101.938 185.825L103.295 185.958L103.163 187.315L107.234 187.712L107.367 186.355L108.724 186.487L108.459 189.202L103.03 188.672L102.765 191.386L101.408 191.254L101.938 185.825ZM102.765 191.386L106.837 191.784L106.705 193.141L102.633 192.743L102.765 191.386ZM106.969 190.426L108.327 190.559L108.194 191.916L106.837 191.784L106.969 190.426ZM117.867 183.269L119.224 183.402L118.164 194.259L116.807 194.127L116.94 192.77L115.583 192.637L115.715 191.28L117.072 191.413L117.337 188.698L115.98 188.566L116.112 187.209L117.47 187.341L117.867 183.269ZM115.583 192.637L115.45 193.994L112.736 193.73L112.868 192.372L115.583 192.637ZM112.868 192.372L111.511 192.24L112.041 186.811L113.398 186.944L112.868 192.372ZM116.112 187.209L113.398 186.944L113.531 185.586L116.245 185.851L116.112 187.209Z" fill="#735C00"/>
</g>
<path d="M283.741 199.459L290.527 200.122L290.395 201.479L284.966 200.949L284.701 203.663L288.773 204.061L288.64 205.418L284.568 205.021L284.171 209.092L289.6 209.622L289.467 210.979L282.681 210.317L283.741 199.459ZM293.579 203.16L296.293 203.425L296.161 204.782L294.804 204.649L294.141 211.435L292.784 211.303L293.579 203.16ZM296.161 204.782L297.518 204.914L296.856 211.7L295.499 211.568L296.161 204.782ZM298.875 205.047L297.518 204.914L297.651 203.557L299.008 203.69L298.875 205.047ZM298.875 205.047L300.232 205.179L299.57 211.965L298.213 211.833L298.875 205.047ZM303.284 208.217L304.642 208.35L304.377 211.064L303.019 210.932L303.284 208.217ZM304.377 211.064L307.091 211.329L306.959 212.686L304.244 212.422L304.377 211.064ZM307.223 209.972L308.581 210.105L308.713 208.747L304.642 208.35L304.774 206.993L308.846 207.39L308.978 206.033L310.335 206.165L309.673 212.951L308.316 212.819L308.448 211.462L307.091 211.329L307.223 209.972ZM305.039 204.278L309.111 204.676L308.978 206.033L304.906 205.636L305.039 204.278ZM316.366 206.754L313.652 206.489L313.785 205.132L317.856 205.529L317.194 212.315L319.908 212.58L319.776 213.937L312.99 213.275L313.122 211.918L315.837 212.183L316.366 206.754ZM316.764 202.683L318.121 202.815L317.989 204.172L316.631 204.04L316.764 202.683ZM326.734 205.026L324.02 204.761L324.152 203.404L328.224 203.801L327.297 213.301L330.011 213.566L329.878 214.924L323.093 214.261L323.225 212.904L325.939 213.169L326.734 205.026ZM348.297 207.13L349.654 207.263L349.389 209.977L348.032 209.845L348.297 207.13ZM343.431 214.876L344.788 215.009L344.523 217.723L343.166 217.591L343.431 214.876ZM345.053 212.294L346.41 212.427L346.145 215.141L344.788 215.009L345.053 212.294ZM346.675 209.712L348.032 209.845L347.767 212.559L346.41 212.427L346.675 209.712ZM349.919 204.549L351.276 204.681L351.011 207.395L349.654 207.263L349.919 204.549ZM364.563 207.348L365.921 207.48L364.993 216.981L370.422 217.511L370.29 218.868L363.504 218.205L364.563 207.348ZM376.983 212.671L374.269 212.406L374.401 211.048L378.473 211.446L377.81 218.232L380.525 218.497L380.392 219.854L373.606 219.192L373.739 217.834L376.453 218.099L376.983 212.671ZM377.38 208.599L378.738 208.731L378.605 210.089L377.248 209.956L377.38 208.599ZM384.504 212.034L385.861 212.167L385.729 213.524L387.086 213.657L386.953 215.014L385.596 214.881L385.066 220.31L383.709 220.178L384.504 212.034ZM387.218 212.299L389.933 212.564L389.8 213.922L387.086 213.657L387.218 212.299ZM389.8 213.922L391.157 214.054L390.495 220.84L389.138 220.707L389.8 213.922ZM394.872 210.306L396.229 210.439L395.567 217.225L396.924 217.357L397.056 216L398.413 216.132L398.148 218.847L395.434 218.582L395.169 221.296L393.812 221.164L394.872 210.306ZM400.035 213.55L401.393 213.683L401.26 215.04L399.903 214.908L400.035 213.55ZM398.546 214.775L399.903 214.908L399.771 216.265L398.413 216.132L398.546 214.775ZM398.148 218.847L399.506 218.979L399.373 220.336L398.016 220.204L398.148 218.847ZM399.373 220.336L400.73 220.469L400.598 221.826L399.241 221.694L399.373 220.336ZM406.067 214.139L410.138 214.537L410.006 215.894L405.934 215.496L406.067 214.139ZM404.577 215.364L405.934 215.496L405.802 216.853L409.873 217.251L410.006 215.894L411.363 216.026L411.098 218.741L405.669 218.211L405.404 220.925L404.047 220.793L404.577 215.364ZM405.404 220.925L409.476 221.322L409.343 222.68L405.272 222.282L405.404 220.925ZM409.608 219.965L410.966 220.098L410.833 221.455L409.476 221.322L409.608 219.965ZM420.506 212.808L421.863 212.941L420.803 223.798L419.446 223.666L419.579 222.309L418.222 222.176L418.354 220.819L419.711 220.951L419.976 218.237L418.619 218.104L418.751 216.747L420.109 216.88L420.506 212.808ZM418.222 222.176L418.089 223.533L415.375 223.268L415.507 221.911L418.222 222.176ZM415.507 221.911L414.15 221.779L414.68 216.35L416.037 216.482L415.507 221.911ZM418.751 216.747L416.037 216.482L416.169 215.125L418.884 215.39L418.751 216.747ZM426.967 223.03L427.762 214.887L425.048 214.622L425.18 213.264L431.966 213.927L431.833 215.284L429.119 215.019L428.324 223.162L431.039 223.427L430.906 224.784L424.12 224.122L424.253 222.765L426.967 223.03ZM435.018 216.965L436.375 217.097L436.243 218.455L437.6 218.587L437.467 219.944L436.11 219.812L435.58 225.24L434.223 225.108L435.018 216.965ZM437.732 217.23L440.447 217.495L440.314 218.852L437.6 218.587L437.732 217.23ZM440.314 218.852L441.671 218.984L441.009 225.77L439.652 225.638L440.314 218.852Z" fill="#735C00"/>
<path d="M376.752 279.173L455.325 297.655L359.443 314.053L376.752 279.173Z" fill="#D3B84D"/>
</g>
<defs>
<filter id="filter0_d_481_191543" x="0" y="0" width="488.063" height="330.875" filterUnits="userSpaceOnUse" color-interpolation-filters="sRGB">
<feFlood flood-opacity="0" result="BackgroundImageFix"/>
<feColorMatrix in="SourceAlpha" type="matrix" values="0 0 0 0 0 0 0 0 0 0 0 0 0 0 0 0 0 0 127 0" result="hardAlpha"/>
<feOffset dx="4" dy="4"/>
<feGaussianBlur stdDeviation="2"/>
<feComposite in2="hardAlpha" operator="out"/>
<feColorMatrix type="matrix" values="0 0 0 0 0.537692 0 0 0 0 0.531815 0 0 0 0 0.531815 0 0 0 0.05 0"/>
<feBlend mode="normal" in2="BackgroundImageFix" result="effect1_dropShadow_481_191543"/>
<feBlend mode="normal" in="SourceGraphic" in2="effect1_dropShadow_481_191543" result="shape"/>
</filter>
</defs>
</svg>
