<svg width="206" height="232" viewBox="0 0 206 232" fill="none" xmlns="http://www.w3.org/2000/svg">
<path d="M27.3113 0.23877L205.824 23.329L180.938 215.726L143.183 226.976L0.372733 208.504L27.3113 0.23877Z" fill="#D48A6A"/>
<path d="M148.211 211.493L180.938 215.726L143.183 226.976L148.211 211.493Z" fill="#B87050"/>
<path d="M45.4463 23.9281L46.5282 24.0681L46.2483 26.2319L45.1664 26.0919L45.4463 23.9281ZM41.361 29.9997L42.4429 30.1396L42.163 32.3034L41.0811 32.1635L41.361 29.9997ZM42.7228 27.9758L43.8047 28.1158L43.5248 30.2796L42.4429 30.1396L42.7228 27.9758ZM44.0846 25.952L45.1664 26.0919L44.8866 28.2557L43.8047 28.1158L44.0846 25.952ZM46.8081 21.9043L47.89 22.0442L47.6101 24.208L46.5282 24.0681L46.8081 21.9043ZM54.4519 25.093L55.5338 25.2329L55.2539 27.3967L54.1721 27.2568L54.4519 25.093ZM50.3666 31.1645L51.4485 31.3045L51.1686 33.4683L50.0867 33.3283L50.3666 31.1645ZM51.7284 29.1407L52.8103 29.2806L52.5304 31.4444L51.4485 31.3045L51.7284 29.1407ZM53.0902 27.1168L54.1721 27.2568L53.8922 29.4206L52.8103 29.2806L53.0902 27.1168ZM55.8137 23.0691L56.8956 23.2091L56.6157 25.3729L55.5338 25.2329L55.8137 23.0691ZM69.2174 27.0029L70.2993 27.1428L70.0195 29.3066L68.9376 29.1666L69.2174 27.0029ZM70.0195 29.3066L73.2652 29.7264L73.1252 30.8083L69.8795 30.3885L70.0195 29.3066ZM72.7054 34.054L72.5654 35.1359L69.3198 34.7161L69.4597 33.6342L72.7054 34.054ZM69.4597 33.6342L68.3778 33.4942L68.5177 32.4123L69.5996 32.5523L69.4597 33.6342ZM73.1252 30.8083L74.2071 30.9482L73.7873 34.1939L72.7054 34.054L73.1252 30.8083ZM70.4393 26.0609L73.685 26.4807L73.545 27.5626L70.2993 27.1428L70.4393 26.0609ZM73.545 27.5626L74.6269 27.7026L74.487 28.7845L73.4051 28.6445L73.545 27.5626ZM78.363 27.0858L83.7725 27.7855L83.6325 28.8674L79.3049 28.3077L79.0251 30.4714L82.2708 30.8913L82.1308 31.9732L78.8851 31.5533L78.4653 34.799L82.7929 35.3588L82.6529 36.4407L77.2435 35.741L78.363 27.0858ZM87.2287 29.3326L88.3105 29.4725L87.4709 35.9639L86.389 35.8239L87.2287 29.3326ZM87.4709 35.9639L90.7166 36.3837L90.5767 37.4656L87.331 37.0458L87.4709 35.9639ZM90.8565 35.3018L91.9384 35.4417L91.7985 36.5236L90.7166 36.3837L90.8565 35.3018ZM88.4505 28.3906L91.6962 28.8104L91.5562 29.8923L88.3105 29.4725L88.4505 28.3906ZM91.5562 29.8923L92.6381 30.0323L92.4982 31.1142L91.4163 30.9742L91.5562 29.8923ZM96.3742 29.4155L101.784 30.1152L101.644 31.1971L99.4799 30.9172L98.5004 38.4905L97.4185 38.3506L98.398 30.7773L96.2343 30.4974L96.3742 29.4155ZM105.24 31.6623L106.322 31.8022L105.482 38.2936L104.4 38.1536L105.24 31.6623ZM105.482 38.2936L108.728 38.7134L108.588 39.7953L105.342 39.3755L105.482 38.2936ZM109.567 32.222L110.649 32.362L109.81 38.8534L108.728 38.7134L109.567 32.222ZM106.462 30.7203L109.707 31.1401L109.567 32.222L106.322 31.8022L106.462 30.7203ZM114.385 31.7452L118.713 32.305L118.573 33.3869L115.327 32.9671L114.908 36.2128L118.153 36.6326L117.873 38.7964L116.791 38.6564L116.931 37.5745L114.768 37.2946L114.348 40.5403L113.266 40.4004L114.385 31.7452ZM118.573 33.3869L119.655 33.5268L119.235 36.7725L118.153 36.6326L118.573 33.3869ZM117.873 38.7964L118.955 38.9363L118.675 41.1001L117.593 40.9602L117.873 38.7964ZM123.251 33.992L124.333 34.1319L124.053 36.2957L122.971 36.1558L123.251 33.992ZM124.053 36.2957L127.299 36.7155L127.159 37.7974L123.913 37.3776L124.053 36.2957ZM126.739 41.0431L126.599 42.125L123.353 41.7052L123.493 40.6233L126.739 41.0431ZM123.493 40.6233L122.411 40.4834L122.551 39.4015L123.633 39.5414L123.493 40.6233ZM127.159 37.7974L128.241 37.9374L127.821 41.1831L126.739 41.0431L127.159 37.7974ZM124.473 33.05L127.719 33.4698L127.579 34.5517L124.333 34.1319L124.473 33.05ZM127.579 34.5517L128.661 34.6917L128.521 35.7736L127.439 35.6336L127.579 34.5517Z" fill="#F5EAD4"/>
<path d="M38.0161 57.9857L44.778 58.8603L44.603 60.2127L39.1936 59.513L38.8437 62.2177L42.9008 62.7425L42.7259 64.0949L38.6688 63.5701L37.9691 68.9796L36.6167 68.8047L38.0161 57.9857ZM50.263 63.6948L47.5582 63.3449L47.7332 61.9926L51.7903 62.5173L50.9157 69.2792L53.6204 69.6291L53.4455 70.9814L46.6836 70.1068L46.8585 68.7544L49.5633 69.1043L50.263 63.6948ZM50.7878 59.6377L52.1401 59.8126L51.9652 61.165L50.6128 60.9901L50.7878 59.6377ZM57.8001 63.2947L59.1525 63.4696L58.9775 64.822L60.3299 64.9969L60.155 66.3493L58.8026 66.1744L58.1029 71.5838L56.7505 71.4089L57.8001 63.2947ZM60.5048 63.6446L63.2096 63.9944L63.0346 65.3468L60.3299 64.9969L60.5048 63.6446ZM63.0346 65.3468L64.387 65.5217L63.5124 72.2836L62.16 72.1086L63.0346 65.3468ZM69.5692 62.067L70.9216 62.2419L70.5717 64.9467L74.6289 65.4715L74.4539 66.8238L70.3968 66.2991L69.6971 71.7085L68.3447 71.5336L69.0445 66.1241L67.6921 65.9492L67.867 64.5968L69.2194 64.7718L69.5692 62.067ZM69.6971 71.7085L72.4019 72.0584L72.2269 73.4108L69.5222 73.0609L69.6971 71.7085ZM72.5768 70.706L73.9292 70.8809L73.7542 72.2333L72.4019 72.0584L72.5768 70.706ZM79.2863 66.0739L83.3434 66.5987L83.1685 67.951L79.1114 67.4263L79.2863 66.0739ZM77.759 67.2513L79.1114 67.4263L78.9364 68.7786L82.9936 69.3034L83.1685 67.951L84.5209 68.126L84.171 70.8307L78.7615 70.131L78.4117 72.8357L77.0593 72.6608L77.759 67.2513ZM78.4117 72.8357L82.4688 73.3605L82.2939 74.7129L78.2367 74.1881L78.4117 72.8357ZM82.6437 72.0082L83.9961 72.1831L83.8211 73.5354L82.4688 73.3605L82.6437 72.0082ZM89.3532 67.376L93.4103 67.9008L93.2354 69.2532L89.1783 68.7284L89.3532 67.376ZM87.8259 68.5535L89.1783 68.7284L88.4786 74.1379L87.1262 73.9629L87.8259 68.5535ZM88.4786 74.1379L92.5357 74.6627L92.3608 76.015L88.3037 75.4902L88.4786 74.1379ZM93.2354 69.2532L94.5878 69.4281L94.4128 70.7805L93.0605 70.6055L93.2354 69.2532ZM92.7106 73.3103L94.063 73.4852L93.8881 74.8376L92.5357 74.6627L92.7106 73.3103ZM98.4176 65.7985L99.77 65.9734L99.2452 70.0305L100.598 70.2055L100.423 71.5578L99.0703 71.3829L98.3706 76.7924L97.0182 76.6175L98.4176 65.7985ZM103.302 70.5553L104.655 70.7302L103.78 77.4921L102.428 77.3172L103.302 70.5553ZM100.772 68.8531L103.477 69.2029L103.302 70.5553L100.598 70.2055L100.772 68.8531Z" fill="#F5EAD4"/>
<path d="M170.19 86.7475C170.207 86.6185 170.19 86.5509 170.141 86.5445L169.777 86.6638C169.786 86.5944 169.753 86.5397 169.677 86.4997L169.56 86.4694C169.481 86.4592 169.377 86.481 169.249 86.5351C169.236 86.4829 169.218 86.4301 169.194 86.3767C169.171 86.3233 169.152 86.2754 169.137 86.2332C169.04 85.9686 168.947 85.6792 168.856 85.365C168.777 85.0421 168.701 84.7348 168.628 84.443C168.564 84.1525 168.513 83.9241 168.474 83.7577C168.451 83.6236 168.432 83.4245 168.415 83.1602C168.399 82.8959 168.392 82.5623 168.394 82.1591C168.494 82.2427 168.574 82.2883 168.633 82.296C168.702 82.305 168.78 82.2092 168.867 82.0086C168.891 82.0521 168.943 82.079 169.023 82.0893C169.082 82.097 169.129 82.0829 169.164 82.0471L169.449 81.7208L169.705 81.8447L169.72 81.8467C169.74 81.8492 169.761 81.8419 169.783 81.8246C169.805 81.8073 169.838 81.7914 169.88 81.7766C169.966 81.7373 170.028 81.7202 170.068 81.7254L170.111 81.746C170.343 81.8971 170.474 82.1358 170.502 82.4621C170.583 83.2389 170.713 83.6389 170.891 83.662C171.07 83.6851 171.303 83.5236 171.589 83.1775C171.733 83.0045 171.88 82.8017 172.031 82.5691C172.192 82.3379 172.357 82.0769 172.526 81.7861C172.53 81.9077 172.542 81.9698 172.562 81.9723C172.612 81.9787 172.712 81.8657 172.863 81.6331C173.024 81.4019 173.272 81.086 173.606 80.6856C173.799 80.4383 174.037 80.1615 174.318 79.8551C174.61 79.55 174.917 79.2369 175.241 78.9158C175.565 78.5946 175.877 78.2921 176.175 78.0081C176.484 77.7254 176.758 77.4834 176.995 77.2823C177.233 77.0811 177.406 76.9522 177.514 76.8956C177.924 76.6865 178.254 76.4771 178.503 76.2673C178.484 76.3354 178.461 76.398 178.433 76.4549C178.417 76.5032 178.408 76.5373 178.405 76.5571C178.4 76.5968 178.417 76.6192 178.457 76.6243L178.9 76.4699L178.893 76.5294C178.882 76.6088 178.897 76.651 178.937 76.6561C178.966 76.66 179.032 76.623 179.132 76.5453C179.233 76.4676 179.291 76.4096 179.306 76.3712L179.25 76.5756L179.794 76.3435L179.64 76.5959C179.813 76.5073 179.934 76.4675 180.004 76.4765C180.043 76.4816 180.07 76.5103 180.083 76.5624C180.098 76.6047 180.103 76.6456 180.098 76.6853C180.09 76.7448 180.056 76.811 179.996 76.8839C179.936 76.9568 179.86 77.0427 179.766 77.1416C179.696 77.2132 179.582 77.3194 179.423 77.4601C179.274 77.5922 179.047 77.7897 178.741 78.0526C178.436 78.3055 178.027 78.661 177.514 79.119C177.378 79.2325 177.165 79.4369 176.875 79.7321C176.586 80.0174 176.255 80.3527 175.883 80.7381C175.521 81.1149 175.16 81.4966 174.797 81.8833C174.434 82.27 174.112 82.6215 173.829 82.9378C173.547 83.2442 173.346 83.4753 173.225 83.631L172.1 85.0737C171.858 85.3853 171.659 85.6418 171.502 85.8433C171.346 86.0349 171.228 86.1658 171.148 86.2362C170.977 86.3955 170.792 86.533 170.596 86.6487L170.472 86.557L170.343 86.616L170.19 86.7475Z" fill="#F5EAD4"/>
<path d="M34.3562 86.2496L35.7086 86.4245L34.8339 93.1864L33.4816 93.0115L34.3562 86.2496ZM34.8339 93.1864L36.1863 93.3613L35.6615 97.4184L34.3092 97.2435L34.8339 93.1864ZM39.7657 86.9493L41.118 87.1242L40.2434 93.8861L38.891 93.7112L39.7657 86.9493ZM37.5387 93.5362L38.891 93.7112L38.3663 97.7683L37.0139 97.5934L37.5387 93.5362ZM36.5362 90.6566L37.8885 90.8315L37.5387 93.5362L36.1863 93.3613L36.5362 90.6566ZM45.4256 90.4314L49.4827 90.9562L49.3078 92.3086L45.2507 91.7838L45.4256 90.4314ZM43.8983 91.6089L45.2507 91.7838L45.0758 93.1362L49.1329 93.6609L49.3078 92.3086L50.6602 92.4835L50.3103 95.1882L44.9009 94.4885L44.551 97.1933L43.1986 97.0183L43.8983 91.6089ZM44.551 97.1933L48.6081 97.718L48.4332 99.0704L44.3761 98.5456L44.551 97.1933ZM48.783 96.3657L50.1354 96.5406L49.9605 97.893L48.6081 97.718L48.783 96.3657ZM54.49 88.8539L55.8424 89.0288L55.3176 93.0859L56.67 93.2608L56.4951 94.6132L55.1427 94.4383L54.7928 97.143L56.1452 97.318L55.9703 98.6703L54.6179 98.4954L54.443 99.8478L53.0906 99.6728L54.49 88.8539ZM55.9703 98.6703L58.675 99.0202L58.5001 100.373L55.7954 100.023L55.9703 98.6703ZM59.3747 93.6107L60.7271 93.7856L60.0274 99.1951L58.675 99.0202L59.3747 93.6107ZM56.8449 91.9085L59.5497 92.2583L59.3747 93.6107L56.67 93.2608L56.8449 91.9085ZM64.382 91.5084L65.7344 91.6833L65.5595 93.0357L64.2071 92.8608L64.382 91.5084ZM65.9093 90.3309L69.9664 90.8557L69.7915 92.2081L65.7344 91.6833L65.9093 90.3309ZM69.7915 92.2081L71.1439 92.383L70.794 95.0878L69.4417 94.9128L69.7915 92.2081ZM66.7369 94.563L69.4417 94.9128L69.2667 96.2652L66.562 95.9153L66.7369 94.563ZM69.2667 96.2652L70.6191 96.4401L70.0943 100.497L68.7419 100.322L69.2667 96.2652ZM68.7419 100.322L68.567 101.675L64.5099 101.15L64.6848 99.7975L68.7419 100.322ZM64.6848 99.7975L63.3325 99.6226L63.5074 98.2702L64.8598 98.4452L64.6848 99.7975Z" fill="#F5EAD4"/>
<path d="M166.53 115.011C166.547 114.882 166.53 114.815 166.481 114.808L166.117 114.928C166.126 114.858 166.093 114.804 166.018 114.764L165.9 114.733C165.821 114.723 165.717 114.745 165.589 114.799C165.576 114.747 165.558 114.694 165.534 114.641C165.511 114.587 165.492 114.539 165.477 114.497C165.38 114.232 165.287 113.943 165.196 113.629C165.117 113.306 165.041 112.999 164.968 112.707C164.904 112.416 164.853 112.188 164.814 112.022C164.791 111.888 164.772 111.688 164.755 111.424C164.739 111.16 164.732 110.826 164.734 110.423C164.834 110.507 164.914 110.552 164.973 110.56C165.043 110.569 165.121 110.473 165.207 110.273C165.232 110.316 165.284 110.343 165.363 110.353C165.422 110.361 165.47 110.347 165.504 110.311L165.789 109.985L166.045 110.109L166.06 110.111C166.08 110.113 166.101 110.106 166.123 110.089C166.146 110.071 166.178 110.055 166.22 110.041C166.306 110.001 166.369 109.984 166.408 109.989L166.451 110.01C166.683 110.161 166.814 110.4 166.842 110.726C166.923 111.503 167.053 111.903 167.232 111.926C167.41 111.949 167.643 111.787 167.929 111.441C168.073 111.268 168.22 111.066 168.371 110.833C168.532 110.602 168.697 110.341 168.866 110.05C168.87 110.172 168.882 110.234 168.902 110.236C168.952 110.243 169.052 110.13 169.203 109.897C169.364 109.666 169.612 109.35 169.946 108.949C170.139 108.702 170.377 108.425 170.658 108.119C170.95 107.814 171.257 107.501 171.581 107.18C171.905 106.859 172.217 106.556 172.516 106.272C172.824 105.989 173.098 105.747 173.335 105.546C173.573 105.345 173.746 105.216 173.854 105.16C174.264 104.95 174.594 104.741 174.843 104.531C174.824 104.599 174.801 104.662 174.773 104.719C174.757 104.767 174.748 104.801 174.745 104.821C174.74 104.861 174.757 104.883 174.797 104.888L175.24 104.734L175.233 104.793C175.222 104.873 175.237 104.915 175.277 104.92C175.307 104.924 175.372 104.887 175.473 104.809C175.573 104.732 175.631 104.673 175.646 104.635L175.59 104.84L176.134 104.607L175.98 104.86C176.153 104.771 176.274 104.731 176.344 104.74C176.383 104.746 176.41 104.774 176.423 104.826C176.438 104.869 176.443 104.91 176.438 104.949C176.43 105.009 176.396 105.075 176.336 105.148C176.276 105.221 176.2 105.307 176.106 105.405C176.037 105.477 175.922 105.583 175.763 105.724C175.614 105.856 175.387 106.054 175.081 106.316C174.776 106.569 174.367 106.925 173.854 107.383C173.718 107.496 173.505 107.701 173.215 107.996C172.926 108.281 172.595 108.617 172.223 109.002C171.862 109.379 171.5 109.761 171.137 110.147C170.774 110.534 170.452 110.885 170.169 111.202C169.887 111.508 169.686 111.739 169.565 111.895L168.44 113.338C168.199 113.649 167.999 113.906 167.842 114.107C167.686 114.299 167.568 114.43 167.488 114.5C167.317 114.659 167.132 114.797 166.936 114.913L166.812 114.821L166.683 114.88L166.53 115.011Z" fill="#F5EAD4"/>
<path d="M30.3564 117.219L31.7088 117.394L31.359 120.099L35.4161 120.624L35.7659 117.919L37.1183 118.094L36.0687 126.208L34.7164 126.033L35.2411 121.976L31.184 121.451L30.6593 125.508L29.3069 125.333L30.3564 117.219ZM33.411 114.864L34.7634 115.039L34.5885 116.392L33.2361 116.217L33.411 114.864ZM31.8837 116.042L33.2361 116.217L33.0612 117.569L31.7088 117.394L31.8837 116.042ZM34.5885 116.392L35.9409 116.567L35.7659 117.919L34.4136 117.744L34.5885 116.392ZM42.2535 125.633L43.303 117.519L40.5983 117.169L40.7732 115.817L47.5351 116.691L47.3601 118.044L44.6554 117.694L43.6058 125.808L46.3106 126.158L46.1357 127.51L39.3738 126.636L39.5487 125.283L42.2535 125.633ZM60.907 118.421L66.3165 119.121L66.1416 120.473L62.0845 119.948L61.5597 124.005L65.6168 124.53L65.4419 125.882L61.3848 125.358L60.86 129.415L59.5076 129.24L60.907 118.421ZM66.1416 120.473L67.494 120.648L66.9692 124.705L65.6168 124.53L66.1416 120.473ZM73.3289 122.778L73.1539 124.13L74.5063 124.305L74.3314 125.657L72.979 125.482L72.4542 129.539L75.159 129.889L74.984 131.242L69.5746 130.542L69.7495 129.19L71.1019 129.365L71.8016 123.955L70.4492 123.78L70.6241 122.428L73.3289 122.778ZM77.386 123.302L77.211 124.655L74.5063 124.305L74.6812 122.953L77.386 123.302ZM82.0434 123.905L86.1005 124.43L85.9256 125.782L81.8685 125.257L82.0434 123.905ZM85.9256 125.782L87.278 125.957L86.5783 131.366L85.2259 131.191L85.9256 125.782ZM80.5161 125.082L81.8685 125.257L81.1688 130.667L79.8164 130.492L80.5161 125.082ZM81.1688 130.667L85.2259 131.191L85.051 132.544L80.9938 132.019L81.1688 130.667ZM96.5173 123.027L97.8696 123.202L96.4702 134.021L95.1179 133.846L95.2928 132.494L93.9404 132.319L94.1154 130.966L95.4677 131.141L95.8176 128.436L94.4652 128.262L94.6401 126.909L95.9925 127.084L96.5173 123.027ZM93.9404 132.319L93.7655 133.671L91.0608 133.321L91.2357 131.969L93.9404 132.319ZM91.2357 131.969L89.8833 131.794L90.583 126.384L91.9354 126.559L91.2357 131.969ZM94.6401 126.909L91.9354 126.559L92.1103 125.207L94.8151 125.557L94.6401 126.909ZM100.825 126.334L102.177 126.509L101.303 133.271L99.9502 133.096L100.825 126.334ZM101.303 133.271L104.007 133.621L103.832 134.973L101.128 134.623L101.303 133.271ZM106.234 127.034L107.587 127.209L106.537 135.323L105.185 135.148L105.36 133.796L104.007 133.621L104.182 132.268L105.535 132.443L106.234 127.034ZM112.244 127.811L116.301 128.336L116.126 129.688L112.069 129.164L112.244 127.811ZM110.717 128.989L112.069 129.164L111.37 134.573L110.017 134.398L110.717 128.989ZM111.37 134.573L115.427 135.098L115.252 136.45L111.195 135.925L111.37 134.573ZM116.126 129.688L117.479 129.863L117.304 131.216L115.951 131.041L116.126 129.688ZM115.602 133.745L116.954 133.92L116.779 135.273L115.427 135.098L115.602 133.745ZM122.661 126.409L124.013 126.584L123.663 129.288L127.721 129.813L127.546 131.165L123.489 130.641L122.789 136.05L121.436 135.875L122.136 130.466L120.784 130.291L120.959 128.938L122.311 129.113L122.661 126.409ZM122.789 136.05L125.494 136.4L125.319 137.752L122.614 137.403L122.789 136.05ZM125.668 135.048L127.021 135.223L126.846 136.575L125.494 136.4L125.668 135.048ZM135.56 137.702L135.386 139.054L131.328 138.53L131.503 137.177L135.56 137.702ZM131.503 137.177L130.151 137.002L130.326 135.65L131.678 135.825L131.503 137.177ZM136.435 130.94L136.26 132.293L132.203 131.768L132.378 130.415L136.435 130.94ZM130.851 131.593L132.203 131.768L132.028 133.12L130.676 132.945L130.851 131.593ZM132.028 133.12L136.085 133.645L135.91 134.997L131.853 134.473L132.028 133.12ZM135.91 134.997L137.263 135.172L136.913 137.877L135.56 137.702L135.91 134.997ZM136.26 132.293L137.613 132.468L137.438 133.82L136.085 133.645L136.26 132.293Z" fill="#F5EAD4"/>
<path d="M162.88 143.276C162.897 143.147 162.88 143.08 162.831 143.073L162.467 143.193C162.476 143.123 162.443 143.069 162.368 143.028L162.251 142.998C162.171 142.988 162.068 143.01 161.94 143.064C161.926 143.012 161.908 142.959 161.884 142.905C161.861 142.852 161.842 142.804 161.827 142.762C161.73 142.497 161.637 142.208 161.546 141.894C161.467 141.571 161.391 141.264 161.318 140.972C161.255 140.681 161.203 140.453 161.164 140.286C161.141 140.152 161.122 139.953 161.106 139.689C161.089 139.425 161.082 139.091 161.084 138.688C161.184 138.771 161.264 138.817 161.323 138.825C161.393 138.834 161.471 138.738 161.557 138.537C161.582 138.581 161.634 138.608 161.713 138.618C161.772 138.626 161.82 138.612 161.855 138.576L162.139 138.25L162.395 138.374L162.41 138.375C162.43 138.378 162.451 138.371 162.473 138.353C162.496 138.336 162.528 138.32 162.57 138.305C162.656 138.266 162.719 138.249 162.758 138.254L162.801 138.275C163.034 138.426 163.164 138.665 163.192 138.991C163.273 139.768 163.403 140.168 163.582 140.191C163.76 140.214 163.993 140.052 164.28 139.706C164.423 139.533 164.57 139.33 164.721 139.098C164.882 138.867 165.047 138.606 165.216 138.315C165.22 138.436 165.232 138.499 165.252 138.501C165.302 138.508 165.402 138.394 165.553 138.162C165.714 137.931 165.962 137.615 166.296 137.214C166.489 136.967 166.727 136.69 167.008 136.384C167.3 136.079 167.608 135.766 167.931 135.445C168.255 135.123 168.567 134.821 168.866 134.537C169.174 134.254 169.448 134.012 169.685 133.811C169.923 133.61 170.096 133.481 170.204 133.424C170.615 133.215 170.944 133.006 171.193 132.796C171.174 132.864 171.151 132.927 171.124 132.984C171.107 133.032 171.098 133.066 171.095 133.086C171.09 133.126 171.107 133.148 171.147 133.153L171.59 132.999L171.583 133.058C171.572 133.138 171.587 133.18 171.627 133.185C171.657 133.189 171.722 133.152 171.823 133.074C171.923 132.996 171.981 132.938 171.996 132.9L171.94 133.104L172.484 132.872L172.33 133.125C172.503 133.036 172.624 132.996 172.694 133.005C172.733 133.01 172.76 133.039 172.773 133.091C172.788 133.133 172.793 133.174 172.788 133.214C172.78 133.274 172.746 133.34 172.686 133.413C172.627 133.486 172.55 133.572 172.456 133.67C172.387 133.742 172.272 133.848 172.113 133.989C171.965 134.121 171.737 134.318 171.431 134.581C171.126 134.834 170.717 135.19 170.204 135.648C170.068 135.761 169.856 135.966 169.565 136.261C169.276 136.546 168.946 136.882 168.573 137.267C168.212 137.644 167.85 138.025 167.487 138.412C167.125 138.799 166.802 139.15 166.519 139.467C166.237 139.773 166.036 140.004 165.915 140.16L164.791 141.603C164.549 141.914 164.349 142.171 164.192 142.372C164.036 142.564 163.918 142.695 163.839 142.765C163.667 142.924 163.483 143.062 163.286 143.178L163.162 143.086L163.033 143.145L162.88 143.276Z" fill="#F5EAD4"/>
<path d="M27.0465 142.778L28.3989 142.953L27.8741 147.01L31.9312 147.535L32.456 143.478L33.8084 143.653L32.4089 154.472L31.0566 154.297L31.7563 148.888L27.6992 148.363L26.9995 153.772L25.6471 153.597L27.0465 142.778ZM38.1159 146.96L42.1731 147.485L41.9981 148.837L37.941 148.313L38.1159 146.96ZM36.5886 148.138L37.941 148.313L37.7661 149.665L41.8232 150.19L41.9981 148.837L43.3505 149.012L43.0006 151.717L37.5912 151.017L37.2413 153.722L35.8889 153.547L36.5886 148.138ZM37.2413 153.722L41.2984 154.247L41.1235 155.599L37.0664 155.074L37.2413 153.722ZM41.4733 152.894L42.8257 153.069L42.6508 154.422L41.2984 154.247L41.4733 152.894ZM46.3057 152.145L47.6581 152.319L47.3082 155.024L45.9559 154.849L46.3057 152.145ZM47.3082 155.024L50.013 155.374L49.838 156.726L47.1333 156.377L47.3082 155.024ZM50.1879 154.022L51.5403 154.197L51.7152 152.844L47.6581 152.319L47.833 150.967L51.8901 151.492L52.065 150.14L53.4174 150.314L52.5428 157.076L51.1904 156.901L51.3653 155.549L50.013 155.374L50.1879 154.022ZM48.1829 148.262L52.24 148.787L52.065 150.14L48.0079 149.615L48.1829 148.262ZM59.7771 148.387L57.0723 148.037L57.2473 146.685L61.3044 147.21L60.0799 156.676L62.7846 157.026L62.6097 158.378L55.8478 157.504L56.0228 156.151L58.7275 156.501L59.7771 148.387ZM68.6665 148.162L70.0189 148.337L69.6691 151.042L73.7262 151.566L73.5512 152.919L69.4941 152.394L68.7944 157.803L67.4421 157.628L68.1418 152.219L66.7894 152.044L66.9643 150.692L68.3167 150.867L68.6665 148.162ZM68.7944 157.803L71.4992 158.153L71.3242 159.506L68.6195 159.156L68.7944 157.803ZM71.6741 156.801L73.0265 156.976L72.8515 158.328L71.4992 158.153L71.6741 156.801ZM77.3811 149.289L78.7335 149.464L78.2087 153.521L79.5611 153.696L79.3861 155.048L78.0338 154.873L77.3341 160.283L75.9817 160.108L77.3811 149.289ZM82.2658 154.046L83.6182 154.221L82.7435 160.983L81.3912 160.808L82.2658 154.046ZM79.736 152.344L82.4407 152.694L82.2658 154.046L79.5611 153.696L79.736 152.344ZM88.4505 153.471L92.5076 153.996L92.3327 155.348L88.2756 154.823L88.4505 153.471ZM86.9232 154.648L88.2756 154.823L87.5759 160.233L86.2235 160.058L86.9232 154.648ZM87.5759 160.233L91.633 160.758L91.4581 162.11L87.401 161.585L87.5759 160.233ZM92.3327 155.348L93.6851 155.523L93.5102 156.875L92.1578 156.7L92.3327 155.348ZM91.8079 159.405L93.1603 159.58L92.9854 160.932L91.633 160.758L91.8079 159.405ZM96.6403 158.655L97.9927 158.83L97.6428 161.535L96.2904 161.36L96.6403 158.655ZM97.6428 161.535L100.348 161.885L100.173 163.237L97.4679 162.887L97.6428 161.535ZM100.522 160.532L101.875 160.707L102.05 159.355L97.9927 158.83L98.1676 157.478L102.225 158.003L102.4 156.65L103.752 156.825L102.877 163.587L101.525 163.412L101.7 162.06L100.348 161.885L100.522 160.532ZM98.5174 154.773L102.575 155.298L102.4 156.65L98.3425 156.125L98.5174 154.773ZM109.937 156.25L109.762 157.602L111.114 157.777L110.939 159.13L109.587 158.955L109.062 163.012L111.767 163.362L111.592 164.714L106.182 164.014L106.357 162.662L107.71 162.837L108.409 157.428L107.057 157.253L107.232 155.9L109.937 156.25ZM113.994 156.775L113.819 158.127L111.114 157.777L111.289 156.425L113.994 156.775ZM118.651 157.377L122.708 157.902L122.533 159.254L118.476 158.73L118.651 157.377ZM117.124 158.555L118.476 158.73L118.301 160.082L122.359 160.607L122.533 159.254L123.886 159.429L123.536 162.134L118.127 161.434L117.777 164.139L116.424 163.964L117.124 158.555ZM117.777 164.139L121.834 164.664L121.659 166.016L117.602 165.491L117.777 164.139ZM122.009 163.312L123.361 163.486L123.186 164.839L121.834 164.664L122.009 163.312Z" fill="#F5EAD4"/>
<path d="M159.22 171.54C159.237 171.411 159.221 171.344 159.171 171.337L158.808 171.457C158.817 171.387 158.783 171.332 158.708 171.292L158.591 171.262C158.511 171.252 158.408 171.274 158.28 171.328C158.266 171.276 158.248 171.223 158.225 171.169C158.201 171.116 158.182 171.068 158.168 171.026C158.071 170.761 157.977 170.472 157.887 170.158C157.807 169.835 157.731 169.528 157.658 169.236C157.595 168.945 157.544 168.717 157.505 168.55C157.482 168.416 157.462 168.217 157.446 167.953C157.43 167.689 157.422 167.355 157.424 166.952C157.524 167.035 157.604 167.081 157.663 167.089C157.733 167.098 157.811 167.002 157.897 166.801C157.922 166.845 157.974 166.872 158.053 166.882C158.113 166.89 158.16 166.876 158.195 166.84L158.479 166.514L158.735 166.637L158.75 166.639C158.77 166.642 158.791 166.635 158.813 166.617C158.836 166.6 158.868 166.584 158.91 166.569C158.996 166.53 159.059 166.513 159.099 166.518L159.141 166.539C159.374 166.69 159.504 166.929 159.533 167.255C159.614 168.032 159.743 168.432 159.922 168.455C160.1 168.478 160.333 168.316 160.62 167.97C160.763 167.797 160.91 167.594 161.061 167.362C161.222 167.131 161.387 166.87 161.556 166.579C161.56 166.7 161.573 166.762 161.592 166.765C161.642 166.771 161.742 166.658 161.893 166.426C162.054 166.195 162.302 165.879 162.636 165.478C162.829 165.231 163.067 164.954 163.349 164.648C163.64 164.343 163.948 164.03 164.272 163.708C164.596 163.387 164.907 163.085 165.206 162.801C165.515 162.518 165.788 162.276 166.026 162.075C166.263 161.874 166.436 161.745 166.545 161.688C166.955 161.479 167.284 161.27 167.533 161.06C167.514 161.128 167.491 161.191 167.464 161.248C167.447 161.296 167.438 161.33 167.435 161.35C167.43 161.389 167.448 161.412 167.487 161.417L167.931 161.263L167.923 161.322C167.913 161.401 167.927 161.444 167.967 161.449C167.997 161.453 168.062 161.416 168.163 161.338C168.264 161.26 168.322 161.202 168.337 161.164L168.28 161.368L168.824 161.136L168.671 161.389C168.843 161.3 168.964 161.26 169.034 161.269C169.074 161.274 169.1 161.303 169.114 161.355C169.128 161.397 169.133 161.438 169.128 161.478C169.12 161.538 169.086 161.604 169.027 161.677C168.967 161.75 168.89 161.835 168.797 161.934C168.727 162.006 168.612 162.112 168.453 162.253C168.305 162.385 168.078 162.582 167.771 162.845C167.466 163.098 167.057 163.454 166.544 163.912C166.409 164.025 166.196 164.23 165.905 164.525C165.616 164.81 165.286 165.145 164.913 165.531C164.552 165.908 164.19 166.289 163.827 166.676C163.465 167.063 163.142 167.414 162.859 167.73C162.577 168.037 162.376 168.268 162.255 168.424L161.131 169.866C160.889 170.178 160.689 170.434 160.532 170.636C160.376 170.828 160.258 170.959 160.179 171.029C160.007 171.188 159.823 171.326 159.626 171.441L159.502 171.35L159.373 171.409L159.22 171.54Z" fill="#F5EAD4"/>
<path d="M23.3866 171.042L30.1484 171.917L29.9735 173.269L24.564 172.57L24.2142 175.274L28.2713 175.799L28.0964 177.152L24.0393 176.627L23.5145 180.684L28.924 181.384L28.749 182.736L21.9872 181.861L23.3866 171.042ZM38.1633 178.454L37.9884 179.806L33.9313 179.281L34.1062 177.929L38.1633 178.454ZM43.3455 174.999L44.6979 175.174L43.6483 183.288L42.2959 183.113L43.3455 174.999ZM43.6483 183.288L47.7054 183.813L47.5305 185.165L43.4734 184.64L43.6483 183.288ZM47.8804 182.461L49.2327 182.635L49.0578 183.988L47.7054 183.813L47.8804 182.461ZM44.8728 173.822L48.9299 174.346L48.755 175.699L44.6979 175.174L44.8728 173.822ZM48.755 175.699L50.1074 175.874L49.9324 177.226L48.5801 177.051L48.755 175.699ZM54.5899 177.828L58.647 178.353L58.472 179.706L54.4149 179.181L54.5899 177.828ZM58.472 179.706L59.8244 179.88L59.1247 185.29L57.7723 185.115L58.472 179.706ZM53.0626 179.006L54.4149 179.181L53.7152 184.59L52.3629 184.415L53.0626 179.006ZM53.7152 184.59L57.7723 185.115L57.5974 186.467L53.5403 185.943L53.7152 184.59ZM63.3044 178.956L66.0092 179.305L65.8342 180.658L64.4819 180.483L63.6072 187.245L62.2549 187.07L63.3044 178.956ZM65.8342 180.658L67.1866 180.833L66.312 187.595L64.9596 187.42L65.8342 180.658ZM68.539 181.008L67.1866 180.833L67.3615 179.48L68.7139 179.655L68.539 181.008ZM68.539 181.008L69.8913 181.183L69.0167 187.944L67.6643 187.77L68.539 181.008ZM73.3713 180.258L76.0761 180.608L75.9011 181.96L74.5488 181.785L73.6741 188.547L72.3218 188.372L73.3713 180.258ZM75.9011 181.96L77.2535 182.135L76.3789 188.897L75.0265 188.722L75.9011 181.96ZM78.6059 182.31L77.2535 182.135L77.4284 180.783L78.7808 180.957L78.6059 182.31ZM78.6059 182.31L79.9583 182.485L79.0836 189.247L77.7313 189.072L78.6059 182.31ZM84.7906 181.735L88.8477 182.26L88.6728 183.612L84.6157 183.087L84.7906 181.735ZM83.2633 182.912L84.6157 183.087L84.4408 184.44L88.4979 184.964L88.6728 183.612L90.0252 183.787L89.6753 186.492L84.2658 185.792L83.916 188.497L82.5636 188.322L83.2633 182.912ZM83.916 188.497L87.9731 189.021L87.7982 190.374L83.7411 189.849L83.916 188.497ZM88.148 187.669L89.5004 187.844L89.3255 189.196L87.9731 189.021L88.148 187.669ZM96.2099 183.212L96.035 184.564L97.3873 184.739L97.2124 186.092L95.86 185.917L95.3353 189.974L98.04 190.324L97.8651 191.676L92.4556 190.976L92.6305 189.624L93.9829 189.799L94.6826 184.389L93.3302 184.214L93.5052 182.862L96.2099 183.212ZM100.267 183.737L100.092 185.089L97.3873 184.739L97.5623 183.387L100.267 183.737ZM104.924 184.339L108.982 184.864L108.807 186.216L104.75 185.691L104.924 184.339ZM103.397 185.517L104.75 185.691L104.05 191.101L102.697 190.926L103.397 185.517ZM104.05 191.101L108.107 191.626L107.932 192.978L103.875 192.453L104.05 191.101ZM108.807 186.216L110.159 186.391L109.984 187.744L108.632 187.569L108.807 186.216ZM108.282 190.273L109.634 190.448L109.459 191.801L108.107 191.626L108.282 190.273ZM114.991 185.641L119.048 186.166L118.874 187.518L114.816 186.994L114.991 185.641ZM113.464 186.819L114.816 186.994L114.642 188.346L118.699 188.871L118.874 187.518L120.226 187.693L119.876 190.398L114.467 189.698L114.117 192.403L112.764 192.228L113.464 186.819ZM114.117 192.403L118.174 192.928L117.999 194.28L113.942 193.755L114.117 192.403ZM118.349 191.575L119.701 191.75L119.526 193.103L118.174 192.928L118.349 191.575Z" fill="#F5EAD4"/>
<path d="M155.56 199.804C155.577 199.675 155.561 199.608 155.511 199.601L155.148 199.72C155.157 199.651 155.123 199.596 155.048 199.556L154.931 199.526C154.852 199.516 154.748 199.538 154.62 199.592C154.606 199.54 154.588 199.487 154.565 199.433C154.541 199.38 154.522 199.332 154.508 199.29C154.411 199.025 154.317 198.736 154.227 198.422C154.147 198.099 154.071 197.791 153.998 197.5C153.935 197.209 153.884 196.981 153.845 196.814C153.822 196.68 153.802 196.481 153.786 196.217C153.77 195.953 153.762 195.619 153.764 195.216C153.864 195.299 153.944 195.345 154.004 195.353C154.073 195.362 154.151 195.266 154.237 195.065C154.262 195.109 154.314 195.136 154.393 195.146C154.453 195.154 154.5 195.14 154.535 195.104L154.819 194.777L155.075 194.901L155.09 194.903C155.11 194.906 155.131 194.899 155.154 194.881C155.176 194.864 155.208 194.848 155.25 194.833C155.336 194.794 155.399 194.777 155.439 194.782L155.481 194.803C155.714 194.954 155.844 195.192 155.873 195.519C155.954 196.296 156.083 196.696 156.262 196.719C156.44 196.742 156.673 196.58 156.96 196.234C157.103 196.061 157.251 195.858 157.402 195.626C157.563 195.395 157.727 195.134 157.896 194.843C157.901 194.964 157.913 195.026 157.933 195.029C157.982 195.035 158.082 194.922 158.234 194.69C158.395 194.459 158.642 194.143 158.976 193.742C159.17 193.495 159.407 193.218 159.689 192.912C159.98 192.607 160.288 192.293 160.612 191.972C160.936 191.651 161.247 191.349 161.546 191.065C161.855 190.782 162.128 190.54 162.366 190.339C162.604 190.138 162.777 190.009 162.885 189.952C163.295 189.743 163.624 189.534 163.873 189.324C163.855 189.392 163.831 189.455 163.804 189.512C163.787 189.56 163.778 189.594 163.775 189.614C163.77 189.653 163.788 189.676 163.827 189.681L164.271 189.527L164.263 189.586C164.253 189.665 164.267 189.708 164.307 189.713C164.337 189.717 164.402 189.68 164.503 189.602C164.604 189.524 164.662 189.466 164.677 189.428L164.62 189.632L165.164 189.4L165.011 189.653C165.183 189.564 165.305 189.524 165.374 189.533C165.414 189.538 165.44 189.567 165.454 189.619C165.468 189.661 165.473 189.702 165.468 189.742C165.46 189.801 165.427 189.868 165.367 189.941C165.307 190.013 165.23 190.099 165.137 190.198C165.067 190.27 164.952 190.376 164.793 190.517C164.645 190.649 164.418 190.846 164.111 191.109C163.806 191.362 163.397 191.718 162.884 192.176C162.749 192.289 162.536 192.494 162.246 192.789C161.957 193.074 161.626 193.409 161.253 193.795C160.892 194.172 160.53 194.553 160.167 194.94C159.805 195.327 159.482 195.678 159.199 195.994C158.918 196.301 158.716 196.532 158.595 196.688L157.471 198.13C157.229 198.442 157.029 198.698 156.872 198.9C156.716 199.092 156.599 199.222 156.519 199.293C156.347 199.452 156.163 199.59 155.966 199.705L155.842 199.614L155.714 199.673L155.56 199.804Z" fill="#F5EAD4"/>
</svg>
