<svg width="240" height="265" viewBox="0 0 240 265" fill="none" xmlns="http://www.w3.org/2000/svg">
<g clip-path="url(#clip0_168_152404)">
<path d="M222.271 36.8788L2.99193 54.6687L0 17.7899L219.28 0L222.271 36.8788ZM13.5648 42.7748L28.5157 41.5619L27.3027 26.611L12.3518 27.8239L13.5648 42.7748ZM74.365 37.8422L89.3159 36.6292L88.1029 21.6783L73.1521 22.8913L74.365 37.8422ZM134.169 32.9904L149.119 31.7774L147.906 16.8266L132.956 18.0395L134.169 32.9904ZM193.756 13.1068L194.969 28.0577L209.92 26.8448L208.707 11.8939L193.756 13.1068Z" fill="#8FBCD4"/>
<rect width="220" height="210.5" transform="translate(2.99194 54.6688) rotate(-4.63818)" fill="#8FBCD4"/>
<path d="M26.1128 75.4815L27.2001 75.3933L27.3765 77.5679L26.2892 77.6562L26.1128 75.4815ZM23.38 82.2701L24.4674 82.1819L24.6438 84.3566L23.5565 84.4448L23.38 82.2701ZM24.291 80.0073L25.3783 79.919L25.5547 82.0937L24.4674 82.1819L24.291 80.0073ZM25.2019 77.7444L26.2892 77.6562L26.4656 79.8308L25.3783 79.919L25.2019 77.7444ZM27.0237 73.2186L28.111 73.1304L28.2874 75.3051L27.2001 75.3933L27.0237 73.2186ZM35.1637 74.7472L36.251 74.659L36.4274 76.8337L35.3401 76.9219L35.1637 74.7472ZM32.4309 81.5359L33.5183 81.4476L33.6947 83.6223L32.6074 83.7105L32.4309 81.5359ZM33.3418 79.273L34.4292 79.1848L34.6056 81.3594L33.5183 81.4476L33.3418 79.273ZM34.2528 77.0101L35.3401 76.9219L35.5165 79.0965L34.4292 79.1848L34.2528 77.0101ZM36.0746 72.4843L37.1619 72.3961L37.3383 74.5708L36.251 74.659L36.0746 72.4843ZM49.9152 72.4559L54.2646 72.1031L54.3528 73.1904L51.0908 73.455L51.62 79.9791L54.8821 79.7144L54.9703 80.8018L50.6209 81.1546L49.9152 72.4559ZM54.3528 73.1904L55.4401 73.1022L55.9694 79.6262L54.8821 79.7144L54.3528 73.1904ZM58.9661 71.7216L64.4028 71.2806L64.491 72.3679L60.1417 72.7208L60.3181 74.8954L63.5801 74.6308L63.6683 75.7181L60.4063 75.9828L60.6709 79.2448L65.0203 78.8919L65.1085 79.9793L59.6718 80.4203L58.9661 71.7216ZM68.1052 72.0747L69.1925 71.9865L69.369 74.1611L68.2816 74.2494L68.1052 72.0747ZM69.369 74.1611L72.631 73.8965L72.7192 74.9838L69.4572 75.2485L69.369 74.1611ZM72.9838 78.2458L73.072 79.3332L69.81 79.5978L69.7218 78.5105L72.9838 78.2458ZM69.7218 78.5105L68.6345 78.5987L68.5463 77.5114L69.6336 77.4232L69.7218 78.5105ZM72.7192 74.9838L73.8065 74.8956L74.0712 78.1576L72.9838 78.2458L72.7192 74.9838ZM69.1043 70.8991L72.3663 70.6345L72.4545 71.7218L69.1925 71.9865L69.1043 70.8991ZM72.4545 71.7218L73.5419 71.6336L73.6301 72.721L72.5428 72.8092L72.4545 71.7218ZM79.86 77.688L79.3308 71.164L77.1561 71.3404L77.0679 70.2531L82.5046 69.812L82.5928 70.8993L80.4181 71.0758L80.9474 77.5998L83.1221 77.4233L83.2103 78.5107L77.7736 78.9518L77.6854 77.8644L79.86 77.688ZM86.207 70.6061L87.2943 70.5179L87.8236 77.0419L86.7363 77.1301L86.207 70.6061ZM87.8236 77.0419L91.0856 76.7773L91.1738 77.8646L87.9118 78.1293L87.8236 77.0419ZM90.9092 74.6026L89.8218 74.6908L89.7336 73.6035L91.9083 73.4271L92.1729 76.6891L91.0856 76.7773L90.9092 74.6026ZM87.2061 69.4306L90.4681 69.1659L90.5563 70.2533L87.2943 70.5179L87.2061 69.4306ZM90.5563 70.2533L91.6437 70.165L91.7319 71.2524L90.6445 71.3406L90.5563 70.2533ZM95.1697 68.7845L96.257 68.6963L96.4334 70.8709L97.5208 70.7827L97.609 71.8701L96.5216 71.9583L96.9627 77.395L95.8754 77.4832L95.1697 68.7845ZM99.9601 73.8683L98.8727 73.9565L98.7845 72.8692L99.8719 72.781L99.519 68.4316L100.606 68.3434L101.312 77.0421L100.225 77.1303L99.9601 73.8683ZM98.7845 72.8692L97.6972 72.9574L97.609 71.8701L98.6963 71.7819L98.7845 72.8692ZM113.36 68.4033L114.447 68.315L114.623 70.4897L113.536 70.5779L113.36 68.4033ZM114.623 70.4897L117.885 70.2251L117.974 71.3124L114.712 71.577L114.623 70.4897ZM118.238 74.5744L118.326 75.6617L115.064 75.9264L114.976 74.8391L118.238 74.5744ZM114.976 74.8391L113.889 74.9273L113.801 73.8399L114.888 73.7517L114.976 74.8391ZM117.974 71.3124L119.061 71.2242L119.326 74.4862L118.238 74.5744L117.974 71.3124ZM114.359 67.2277L117.621 66.9631L117.709 68.0504L114.447 68.315L114.359 67.2277ZM117.709 68.0504L118.796 67.9622L118.885 69.0495L117.797 69.1377L117.709 68.0504ZM122.322 66.5816L127.759 66.1406L127.847 67.2279L125.673 67.4043L126.29 75.0157L125.203 75.1039L124.585 67.4925L122.411 67.669L122.322 66.5816ZM131.55 68.022L132.637 67.9338L132.813 70.1085L136.075 69.8438L135.899 67.6692L136.986 67.5809L137.516 74.105L136.428 74.1932L136.164 70.9312L132.902 71.1958L133.166 74.4578L132.079 74.546L131.55 68.022ZM133.548 65.6709L134.635 65.5827L134.723 66.67L133.636 66.7582L133.548 65.6709ZM132.549 66.8465L133.636 66.7582L133.724 67.8456L132.637 67.9338L132.549 66.8465ZM134.723 66.67L135.811 66.5818L135.899 67.6692L134.812 67.7574L134.723 66.67ZM140.512 66.2004L141.6 66.1122L142.129 72.6362L141.042 72.7244L140.512 66.2004ZM142.129 72.6362L145.391 72.3715L145.479 73.4589L142.217 73.7235L142.129 72.6362ZM145.303 71.2842L146.39 71.196L146.478 72.2833L145.391 72.3715L145.303 71.2842ZM141.511 65.0248L144.773 64.7602L144.862 65.8475L141.6 66.1122L141.511 65.0248ZM144.862 65.8475L145.949 65.7593L146.037 66.8467L144.95 66.9349L144.862 65.8475ZM149.475 64.3788L150.562 64.2905L150.827 67.5526L151.914 67.4643L151.826 66.377L152.913 66.2888L153.09 68.4635L150.915 68.6399L151.268 72.9892L150.181 73.0775L149.475 64.3788ZM153.824 64.0259L154.912 63.9377L155 65.025L153.913 65.1132L153.824 64.0259ZM152.825 65.2015L153.913 65.1132L154.001 66.2006L152.913 66.2888L152.825 65.2015ZM154.354 70.5499L153.266 70.6381L153.09 68.4635L154.177 68.3753L154.354 70.5499ZM154.354 70.5499L155.441 70.4617L155.617 72.6364L154.53 72.7246L154.354 70.5499Z" fill="#F1F1F1"/>
<path d="M26.4728 117.06L33.2686 116.509L33.3789 117.868L27.9422 118.309L28.1627 121.027L32.2402 120.696L32.3505 122.055L28.273 122.386L28.7141 127.823L27.3549 127.933L26.4728 117.06ZM39.6394 120.096L36.9211 120.317L36.8108 118.957L40.8883 118.627L41.4397 125.422L44.158 125.202L44.2683 126.561L37.4724 127.112L37.3622 125.753L40.0805 125.533L39.6394 120.096ZM39.3086 116.019L40.6678 115.908L40.7781 117.267L39.4189 117.378L39.3086 116.019ZM48.2875 118.026L51.0059 117.806L51.1161 119.165L48.3978 119.385L48.2875 118.026ZM47.0386 119.496L48.3978 119.385L48.8389 124.822L47.4797 124.932L47.0386 119.496ZM48.8389 124.822L51.5572 124.602L51.6675 125.961L48.9491 126.181L48.8389 124.822ZM49.0594 127.54L53.1369 127.21L53.2472 128.569L49.1697 128.9L49.0594 127.54ZM51.4469 123.242L52.8061 123.132L52.5856 120.414L51.2264 120.524L51.1161 119.165L52.4753 119.055L52.365 117.695L53.7242 117.585L54.4961 127.099L53.1369 127.21L52.9164 124.491L51.5572 124.602L51.4469 123.242ZM57.0459 117.316L59.7642 117.095L59.8745 118.454L58.5153 118.565L59.0667 125.36L57.7075 125.471L57.0459 117.316ZM59.8745 118.454L61.2337 118.344L61.785 125.14L60.4259 125.25L59.8745 118.454ZM62.5929 118.234L61.2337 118.344L61.1234 116.985L62.4826 116.875L62.5929 118.234ZM62.5929 118.234L63.952 118.124L64.5034 124.919L63.1442 125.03L62.5929 118.234ZM67.4942 120.572L68.8534 120.462L69.074 123.18L67.7148 123.291L67.4942 120.572ZM69.074 123.18L71.7923 122.96L71.9026 124.319L69.1842 124.54L69.074 123.18ZM71.682 121.601L73.0412 121.491L72.9309 120.131L68.8534 120.462L68.7432 119.103L72.8207 118.772L72.7104 117.413L74.0696 117.303L74.6209 124.099L73.2617 124.209L73.1515 122.85L71.7923 122.96L71.682 121.601ZM68.5226 116.385L72.6001 116.054L72.7104 117.413L68.6329 117.744L68.5226 116.385Z" fill="#F1F1F1"/>
<path d="M28.7802 145.471L35.5761 144.919L35.6864 146.279L30.2497 146.72L30.4702 149.438L34.5477 149.107L34.658 150.466L30.5805 150.797L31.0216 156.234L29.6624 156.344L28.7802 145.471ZM41.8367 147.148L41.9469 148.507L43.3061 148.397L43.4164 149.756L42.0572 149.866L42.388 153.944L45.1063 153.723L45.2166 155.082L39.7799 155.523L39.6697 154.164L41.0288 154.054L40.5878 148.617L39.2286 148.727L39.1183 147.368L41.8367 147.148ZM45.9142 146.817L46.0244 148.176L43.3061 148.397L43.1958 147.037L45.9142 146.817ZM49.5667 150.625L50.9258 150.515L51.1464 153.233L49.7872 153.343L49.5667 150.625ZM51.1464 153.233L53.8647 153.012L53.975 154.372L51.2566 154.592L51.1464 153.233ZM53.7544 151.653L55.1136 151.543L55.0033 150.184L50.9258 150.515L50.8156 149.156L54.8931 148.825L54.7828 147.466L56.142 147.355L56.6933 154.151L55.3342 154.261L55.2239 152.902L53.8647 153.012L53.7544 151.653ZM50.595 146.437L54.6725 146.106L54.7828 147.466L50.7053 147.796L50.595 146.437ZM59.3534 145.727L62.0717 145.506L62.182 146.865L60.8228 146.976L61.3742 153.771L60.015 153.882L59.3534 145.727ZM62.182 146.865L63.5412 146.755L64.0925 153.551L62.7333 153.661L62.182 146.865ZM64.9003 146.645L63.5412 146.755L63.4309 145.396L64.7901 145.286L64.9003 146.645ZM64.9003 146.645L66.2595 146.534L66.8109 153.33L65.4517 153.441L64.9003 146.645ZM70.8301 144.796L74.9076 144.465L75.0179 145.824L70.9404 146.155L70.8301 144.796ZM69.5812 146.265L70.9404 146.155L71.0506 147.514L75.1282 147.183L75.0179 145.824L76.3771 145.714L76.5976 148.432L71.1609 148.873L71.3815 151.591L70.0223 151.702L69.5812 146.265ZM71.3815 151.591L75.459 151.261L75.5692 152.62L71.4917 152.951L71.3815 151.591ZM75.3487 149.901L76.7079 149.791L76.8181 151.15L75.459 151.261L75.3487 149.901ZM82.3068 143.864L82.4171 145.224L83.7763 145.113L83.8865 146.473L82.5274 146.583L82.8582 150.66L85.5765 150.44L85.6868 151.799L80.2501 152.24L80.1398 150.881L81.499 150.771L81.0579 145.334L79.6987 145.444L79.5885 144.085L82.3068 143.864ZM86.3843 143.534L86.4946 144.893L83.7763 145.113L83.666 143.754L86.3843 143.534Z" fill="#F1F1F1"/>
<path d="M31.0877 173.882L32.4469 173.771L32.9983 180.567L31.6391 180.677L31.0877 173.882ZM32.9983 180.567L34.3574 180.457L34.6882 184.534L33.3291 184.645L32.9983 180.567ZM36.5244 173.441L37.8836 173.33L38.4349 180.126L37.0758 180.236L36.5244 173.441ZM35.7166 180.347L37.0758 180.236L37.4066 184.314L36.0474 184.424L35.7166 180.347ZM34.1369 177.739L35.4961 177.628L35.7166 180.347L34.3574 180.457L34.1369 177.739ZM42.785 175.669L46.8625 175.338L46.9728 176.697L42.8953 177.028L42.785 175.669ZM41.5361 177.138L42.8953 177.028L43.0055 178.387L47.083 178.056L46.9728 176.697L48.3319 176.587L48.5525 179.305L43.1158 179.746L43.3363 182.465L41.9772 182.575L41.5361 177.138ZM43.3363 182.465L47.4138 182.134L47.5241 183.493L43.4466 183.824L43.3363 182.465ZM47.3036 180.775L48.6627 180.664L48.773 182.024L47.4138 182.134L47.3036 180.775ZM51.3228 172.24L52.682 172.13L53.0128 176.207L54.372 176.097L54.4822 177.456L53.1231 177.566L53.3436 180.285L54.7028 180.174L54.813 181.534L53.4539 181.644L53.5641 183.003L52.205 183.113L51.3228 172.24ZM54.813 181.534L57.5314 181.313L57.6416 182.672L54.9233 182.893L54.813 181.534ZM57.0903 175.876L58.4495 175.766L58.8905 181.203L57.5314 181.313L57.0903 175.876ZM54.2617 174.738L56.98 174.517L57.0903 175.876L54.372 176.097L54.2617 174.738ZM63.1303 175.386L61.7712 175.497L61.6609 174.138L63.0201 174.027L62.9098 172.668L64.269 172.558L64.3792 173.917L68.4567 173.586L68.567 174.945L64.4895 175.276L64.9306 180.713L67.6489 180.492L67.7592 181.851L62.3225 182.293L62.2122 180.933L63.5714 180.823L63.1303 175.386ZM64.1587 171.199L68.2362 170.868L68.3465 172.227L64.269 172.558L64.1587 171.199ZM74.3865 171.737L71.6682 171.958L71.5579 170.598L75.6354 170.268L76.4073 179.782L79.1256 179.561L79.2359 180.92L72.44 181.472L72.3298 180.113L75.0481 179.892L74.3865 171.737ZM83.2551 172.386L87.3327 172.055L87.4429 173.414L83.3654 173.745L83.2551 172.386ZM87.4429 173.414L88.8021 173.304L89.2432 178.74L87.884 178.851L87.4429 173.414ZM82.0062 173.855L83.3654 173.745L83.8065 179.181L82.4473 179.292L82.0062 173.855ZM83.8065 179.181L87.884 178.851L87.9943 180.21L83.9168 180.541L83.8065 179.181ZM92.0135 171.675L93.3727 171.565L93.924 178.361L92.5649 178.471L92.0135 171.675ZM97.4502 171.234L98.8094 171.124L99.471 179.279L96.7526 179.499L96.6424 178.14L98.0015 178.03L97.4502 171.234ZM96.6424 178.14L95.2832 178.25L94.7319 171.455L96.091 171.344L96.6424 178.14ZM93.924 178.361L95.2832 178.25L95.3935 179.61L94.0343 179.72L93.924 178.361Z" fill="#F1F1F1"/>
<path d="M33.5048 203.642L34.864 203.531L35.5256 211.686L34.1664 211.797L33.5048 203.642ZM35.5256 211.686L39.6031 211.356L39.7134 212.715L35.6359 213.046L35.5256 211.686ZM39.4929 209.996L40.852 209.886L40.9623 211.245L39.6031 211.356L39.4929 209.996ZM34.7537 202.172L38.8312 201.841L38.9415 203.201L34.864 203.531L34.7537 202.172ZM38.9415 203.201L40.3007 203.09L40.411 204.45L39.0518 204.56L38.9415 203.201ZM46.3407 202.6L43.6224 202.821L43.5121 201.462L47.5896 201.131L48.3615 210.645L51.0798 210.425L51.1901 211.784L44.3942 212.335L44.284 210.976L47.0023 210.755L46.3407 202.6ZM54.181 207.437L55.5402 207.326L55.7607 210.045L54.4015 210.155L54.181 207.437ZM55.7607 210.045L58.479 209.824L58.5893 211.183L55.871 211.404L55.7607 210.045ZM58.3688 208.465L59.7279 208.355L59.6177 206.996L55.5402 207.326L55.4299 205.967L59.5074 205.636L59.3971 204.277L60.7563 204.167L61.3076 210.963L59.9485 211.073L59.8382 209.714L58.479 209.824L58.3688 208.465ZM55.2094 203.249L59.2869 202.918L59.3971 204.277L55.3196 204.608L55.2094 203.249ZM63.9677 202.538L65.3269 202.428L65.8782 209.224L64.5191 209.334L63.9677 202.538ZM65.8782 209.224L68.5966 209.003L68.7068 210.363L65.9885 210.583L65.8782 209.224ZM69.4044 202.097L70.7636 201.987L71.4252 210.142L70.066 210.252L69.9557 208.893L68.5966 209.003L68.4863 207.644L69.8455 207.534L69.4044 202.097ZM79.3014 198.558L80.6606 198.448L81.5427 209.321L80.1835 209.432L80.0733 208.072L78.7141 208.183L78.6038 206.823L79.963 206.713L79.7425 203.995L78.3833 204.105L78.273 202.746L79.6322 202.636L79.3014 198.558ZM78.7141 208.183L78.8244 209.542L76.106 209.762L75.9958 208.403L78.7141 208.183ZM75.9958 208.403L74.6366 208.513L74.1955 203.077L75.5547 202.966L75.9958 208.403ZM78.273 202.746L75.5547 202.966L75.4444 201.607L78.1628 201.387L78.273 202.746ZM85.562 200.786L89.6395 200.456L89.7497 201.815L85.6722 202.146L85.562 200.786ZM84.3131 202.256L85.6722 202.146L85.7825 203.505L89.86 203.174L89.7497 201.815L91.1089 201.705L91.3295 204.423L85.8928 204.864L86.1133 207.582L84.7541 207.693L84.3131 202.256ZM86.1133 207.582L90.1908 207.252L90.3011 208.611L86.2236 208.941L86.1133 207.582ZM90.0806 205.892L91.4397 205.782L91.55 207.141L90.1908 207.252L90.0806 205.892ZM94.5409 202.794L97.2592 202.574L97.0387 199.855L98.3978 199.745L98.6184 202.463L101.337 202.243L101.447 203.602L98.7287 203.823L98.9492 206.541L97.59 206.651L97.3695 203.933L94.6511 204.153L94.5409 202.794ZM104.328 197.896L105.687 197.786L106.348 205.941L104.989 206.051L104.328 197.896ZM106.348 205.941L110.426 205.61L110.536 206.969L106.459 207.3L106.348 205.941ZM110.316 204.251L111.675 204.14L111.785 205.5L110.426 205.61L110.316 204.251ZM105.577 196.426L109.654 196.096L109.764 197.455L105.687 197.786L105.577 196.426ZM109.764 197.455L111.123 197.345L111.234 198.704L109.875 198.814L109.764 197.455ZM114.555 198.434L115.915 198.324L116.466 205.12L115.107 205.23L114.555 198.434ZM116.466 205.12L119.184 204.899L119.295 206.258L116.576 206.479L116.466 205.12ZM119.992 197.993L121.351 197.883L122.013 206.038L120.654 206.148L120.543 204.789L119.184 204.899L119.074 203.54L120.433 203.43L119.992 197.993ZM127.391 197.393L127.502 198.752L128.861 198.642L128.971 200.001L127.612 200.111L127.943 204.189L130.661 203.968L130.771 205.327L125.335 205.768L125.224 204.409L126.583 204.299L126.142 198.862L124.783 198.973L124.673 197.613L127.391 197.393ZM131.469 197.062L131.579 198.421L128.861 198.642L128.75 197.283L131.469 197.062ZM140.779 203.147L140.889 204.507L136.811 204.837L136.701 203.478L140.779 203.147ZM136.701 203.478L135.342 203.588L135.232 202.229L136.591 202.119L136.701 203.478ZM140.227 196.352L140.337 197.711L136.26 198.042L136.15 196.682L140.227 196.352ZM134.901 198.152L136.26 198.042L136.37 199.401L135.011 199.511L134.901 198.152ZM136.37 199.401L140.448 199.07L140.558 200.429L136.48 200.76L136.37 199.401ZM140.558 200.429L141.917 200.319L142.138 203.037L140.779 203.147L140.558 200.429ZM140.337 197.711L141.697 197.6L141.807 198.96L140.448 199.07L140.337 197.711ZM146.267 195.862L150.345 195.531L150.455 196.89L146.377 197.221L146.267 195.862ZM150.455 196.89L151.814 196.78L152.255 202.216L150.896 202.327L150.455 196.89ZM145.018 197.331L146.377 197.221L146.819 202.657L145.459 202.768L145.018 197.331ZM146.819 202.657L150.896 202.327L151.006 203.686L146.929 204.017L146.819 202.657ZM157.744 194.93L157.854 196.29L159.213 196.179L159.324 197.539L157.964 197.649L158.295 201.726L161.014 201.506L161.124 202.865L155.687 203.306L155.577 201.947L156.936 201.837L156.495 196.4L155.136 196.51L155.026 195.151L157.744 194.93ZM161.821 194.6L161.932 195.959L159.213 196.179L159.103 194.82L161.821 194.6Z" fill="#F1F1F1"/>
</g>
<defs>
<clipPath id="clip0_168_152404">
<rect width="220" height="247.5" fill="white" transform="translate(0 17.7899) rotate(-4.63818)"/>
</clipPath>
</defs>
</svg>
