<svg width="489" height="323" viewBox="0 0 489 323" fill="none" xmlns="http://www.w3.org/2000/svg">
<g filter="url(#filter0_d_481_191568)">
<path d="M27.1998 0.15918L480.048 44.359L455.325 297.655L359.443 314.053L-5.91278e-05 278.835L27.1998 0.15918Z" fill="#FFE786"/>
<path d="M50.1488 27.066L51.506 27.1985L51.2411 29.9129L49.8839 29.7804L50.1488 27.066ZM45.2825 34.8118L46.6396 34.9442L46.3747 37.6586L45.0175 37.5261L45.2825 34.8118ZM46.9046 32.2299L48.2618 32.3623L47.9968 35.0767L46.6396 34.9442L46.9046 32.2299ZM48.5267 29.6479L49.8839 29.7804L49.619 32.4948L48.2618 32.3623L48.5267 29.6479ZM51.7709 24.4841L53.1281 24.6166L52.8632 27.331L51.506 27.1985L51.7709 24.4841ZM61.4459 28.1687L62.8031 28.3011L62.5382 31.0155L61.181 30.8831L61.4459 28.1687ZM56.5796 35.9144L57.9367 36.0469L57.6718 38.7612L56.3146 38.6288L56.5796 35.9144ZM58.2017 33.3325L59.5589 33.465L59.2939 36.1793L57.9367 36.0469L58.2017 33.3325ZM59.8238 30.7506L61.181 30.8831L60.916 33.5974L59.5589 33.465L59.8238 30.7506ZM63.068 25.5868L64.4252 25.7192L64.1603 28.4336L62.8031 28.3011L63.068 25.5868ZM80.101 28.6194L85.5298 29.1492L85.3973 30.5064L81.3257 30.109L80.5309 38.2522L84.6025 38.6496L84.47 40.0067L79.0413 39.4769L80.101 28.6194ZM85.3973 30.5064L86.7545 30.6389L85.9597 38.782L84.6025 38.6496L85.3973 30.5064ZM93.1852 39.4873L93.98 31.3441L91.2656 31.0792L91.3981 29.722L98.1841 30.3844L98.0516 31.7415L95.3372 31.4766L94.5424 39.6197L97.2568 39.8847L97.1243 41.2419L90.3384 40.5795L90.4708 39.2223L93.1852 39.4873ZM102.563 32.1819L103.92 32.3143L103.655 35.0287L102.298 34.8962L102.563 32.1819ZM103.655 35.0287L107.727 35.4261L107.594 36.7833L103.523 36.3859L103.655 35.0287ZM107.197 40.8548L107.064 42.212L102.993 41.8146L103.125 40.4574L107.197 40.8548ZM103.125 40.4574L101.768 40.325L101.9 38.9678L103.258 39.1003L103.125 40.4574ZM107.594 36.7833L108.951 36.9157L108.554 40.9873L107.197 40.8548L107.594 36.7833ZM104.052 30.9571L108.124 31.3545L107.991 32.7117L103.92 32.3143L104.052 30.9571ZM107.991 32.7117L109.349 32.8442L109.216 34.2014L107.859 34.0689L107.991 32.7117ZM113.992 31.9273L119.421 32.4572L119.289 33.8144L115.217 33.417L114.82 37.4885L118.891 37.8859L118.759 39.2431L114.687 38.8457L114.29 42.9173L112.933 42.7848L113.992 31.9273ZM119.289 33.8144L120.646 33.9468L120.248 38.0184L118.891 37.8859L119.289 33.8144ZM125.157 34.3871L126.514 34.5196L125.719 42.6627L124.362 42.5303L125.157 34.3871ZM125.719 42.6627L129.791 43.0601L129.658 44.4173L125.587 44.0199L125.719 42.6627ZM130.586 34.917L131.943 35.0495L131.148 43.1926L129.791 43.0601L130.586 34.917ZM126.647 33.1624L130.718 33.5598L130.586 34.917L126.514 34.5196L126.647 33.1624ZM136.587 34.1326L137.944 34.2651L137.679 36.9794L139.036 37.1119L138.903 38.4691L137.546 38.3366L136.884 45.1226L135.527 44.9901L136.587 34.1326ZM141.353 41.4484L139.996 41.3159L140.128 39.9587L141.485 40.0912L142.015 34.6625L143.372 34.7949L142.313 45.6524L140.956 45.52L141.353 41.4484ZM140.128 39.9587L138.771 39.8263L138.903 38.4691L140.261 38.6016L140.128 39.9587ZM149.671 45.0005L150.466 36.8574L147.751 36.5924L147.884 35.2352L154.67 35.8976L154.537 37.2548L151.823 36.9898L151.028 45.1329L153.742 45.3979L153.61 46.7551L146.824 46.0927L146.956 44.7355L149.671 45.0005ZM159.181 36.3379L164.609 36.8677L164.477 38.2249L160.405 37.8275L160.14 40.5419L164.212 40.9393L164.08 42.2965L160.008 41.8991L159.611 45.9707L163.682 46.3681L163.55 47.7252L158.121 47.1954L159.181 36.3379ZM164.08 42.2965L165.437 42.429L165.039 46.5005L163.682 46.3681L164.08 42.2965ZM164.477 38.2249L165.834 38.3574L165.569 41.0718L164.212 40.9393L164.477 38.2249ZM172.265 47.2058L173.06 39.0626L170.345 38.7977L170.478 37.4405L177.264 38.1029L177.131 39.46L174.417 39.1951L173.622 47.3382L176.336 47.6032L176.204 48.9604L169.418 48.298L169.551 46.9408L172.265 47.2058ZM181.775 38.5432L183.132 38.6756L182.205 48.1759L187.634 48.7058L187.501 50.063L180.715 49.4007L181.775 38.5432ZM194.859 49.411L195.654 41.2679L192.94 41.003L193.072 39.6458L199.858 40.3081L199.725 41.6653L197.011 41.4004L196.216 49.5435L198.931 49.8084L198.798 51.1656L192.012 50.5033L192.145 49.1461L194.859 49.411ZM204.369 40.7484L209.798 41.2783L209.665 42.6355L205.594 42.2381L204.799 50.3812L208.871 50.7786L208.738 52.1358L203.309 51.6059L204.369 40.7484ZM209.665 42.6355L211.023 42.768L210.228 50.9111L208.871 50.7786L209.665 42.6355ZM215.401 44.5655L216.758 44.6979L216.494 47.4123L220.565 47.8097L220.83 45.0953L222.187 45.2278L221.392 53.3709L220.035 53.2385L220.433 49.1669L216.361 48.7695L215.964 52.8411L214.606 52.7086L215.401 44.5655ZM218.381 42.116L219.738 42.2485L219.605 43.6057L218.248 43.4732L218.381 42.116ZM216.891 43.3407L218.248 43.4732L218.116 44.8304L216.758 44.6979L216.891 43.3407ZM219.605 43.6057L220.962 43.7381L220.83 45.0953L219.473 44.9629L219.605 43.6057ZM226.963 42.9537L232.392 43.4836L232.26 44.8408L228.188 44.4434L227.393 52.5865L231.465 52.9839L231.332 54.3411L225.904 53.8112L226.963 42.9537ZM232.26 44.8408L233.617 44.9733L232.822 53.1164L231.465 52.9839L232.26 44.8408Z" fill="#B88D34"/>
<g opacity="0.5">
<path d="M41.3754 74.8207L48.1613 75.4831L48.0288 76.8402L42.6001 76.3104L42.3352 79.0248L46.4067 79.4222L46.2743 80.7793L42.2027 80.3819L41.8053 84.4535L47.234 84.9834L47.1016 86.3406L40.3156 85.6782L41.3754 74.8207ZM55.9796 85.837L55.8472 87.1942L51.7756 86.7968L51.9081 85.4396L55.9796 85.837ZM51.9081 85.4396L50.5509 85.3071L50.6833 83.9499L52.0405 84.0824L51.9081 85.4396ZM56.642 79.051L56.5095 80.4082L52.4379 80.0108L52.5704 78.6536L56.642 79.051ZM51.0807 79.8784L52.4379 80.0108L52.3055 81.368L50.9483 81.2355L51.0807 79.8784ZM52.3055 81.368L56.377 81.7654L56.2446 83.1226L52.173 82.7252L52.3055 81.368ZM56.2446 83.1226L57.6017 83.2551L57.3368 85.9694L55.9796 85.837L56.2446 83.1226ZM56.5095 80.4082L57.8667 80.5407L57.7342 81.8979L56.377 81.7654L56.5095 80.4082ZM62.9381 76.9253L64.2953 77.0578L64.0304 79.7722L68.1019 80.1696L67.9695 81.5268L63.8979 81.1294L63.368 86.5581L62.0108 86.4256L62.5407 80.9969L61.1835 80.8644L61.316 79.5072L62.6732 79.6397L62.9381 76.9253ZM63.368 86.5581L66.0824 86.823L65.9499 88.1802L63.2356 87.9153L63.368 86.5581ZM66.2149 85.4659L67.5721 85.5983L67.4396 86.9555L66.0824 86.823L66.2149 85.4659ZM71.0214 84.5649L72.3785 84.6973L72.1136 87.4117L70.7564 87.2793L71.0214 84.5649ZM72.1136 87.4117L74.828 87.6767L74.6955 89.0338L71.9811 88.7689L72.1136 87.4117ZM74.9605 86.3195L76.3176 86.4519L76.4501 85.0947L72.3785 84.6973L72.511 83.3402L76.5826 83.7376L76.715 82.3804L78.0722 82.5128L77.4099 89.2988L76.0527 89.1663L76.1852 87.8091L74.828 87.6767L74.9605 86.3195ZM72.7759 80.6258L76.8475 81.0232L76.715 82.3804L72.6435 81.983L72.7759 80.6258ZM87.2152 79.2949L88.5724 79.4273L87.5127 90.2848L86.1555 90.1524L86.2879 88.7952L84.9308 88.6627L85.0632 87.3055L86.4204 87.438L86.6853 84.7236L85.3282 84.5912L85.4606 83.234L86.8178 83.3664L87.2152 79.2949ZM84.9308 88.6627L84.7983 90.0199L82.0839 89.755L82.2164 88.3978L84.9308 88.6627ZM82.2164 88.3978L80.8592 88.2653L81.3891 82.8366L82.7463 82.969L82.2164 88.3978ZM85.4606 83.234L82.7463 82.969L82.8787 81.6119L85.5931 81.8768L85.4606 83.234ZM92.9815 82.5979L97.0531 82.9953L96.9206 84.3525L92.849 83.9551L92.9815 82.5979ZM96.9206 84.3525L98.2778 84.485L97.7479 89.9137L96.3907 89.7813L96.9206 84.3525ZM91.4918 83.8226L92.849 83.9551L92.3192 89.3839L90.962 89.2514L91.4918 83.8226ZM92.3192 89.3839L96.3907 89.7813L96.2583 91.1385L92.1867 90.741L92.3192 89.3839Z" fill="#735C00"/>
</g>
<path d="M180.04 88.3549L185.468 88.8848L185.336 90.242L181.264 89.8446L180.47 97.9877L184.541 98.3851L184.409 99.7423L178.98 99.2124L180.04 88.3549ZM185.336 90.242L186.693 90.3744L185.898 98.5176L184.541 98.3851L185.336 90.242ZM192.459 93.6775L189.745 93.4125L189.878 92.0554L193.949 92.4528L193.287 99.2387L196.001 99.5036L195.869 100.861L189.083 100.198L189.215 98.8413L191.93 99.1062L192.459 93.6775ZM192.857 89.6059L194.214 89.7384L194.082 91.0956L192.724 90.9631L192.857 89.6059ZM204.747 100.357L204.614 101.714L200.543 101.317L200.675 99.9598L204.747 100.357ZM200.675 99.9598L199.318 99.8274L199.45 98.4702L200.808 98.6026L200.675 99.9598ZM205.409 93.5713L205.277 94.9285L201.205 94.5311L201.338 93.1739L205.409 93.5713ZM199.848 94.3986L201.205 94.5311L201.073 95.8883L199.715 95.7558L199.848 94.3986ZM201.073 95.8883L205.144 96.2857L205.012 97.6429L200.94 97.2455L201.073 95.8883ZM205.012 97.6429L206.369 97.7753L206.104 100.49L204.747 100.357L205.012 97.6429ZM205.277 94.9285L206.634 95.0609L206.501 96.4181L205.144 96.2857L205.277 94.9285ZM210.083 94.0275L211.44 94.16L211.308 95.5172L212.665 95.6496L212.533 97.0068L211.175 96.8743L210.91 99.5887L212.268 99.7212L212.135 101.078L210.778 100.946L210.381 105.017L209.023 104.885L210.083 94.0275ZM212.798 94.2924L215.512 94.5574L215.379 95.9146L212.665 95.6496L212.798 94.2924ZM215.379 95.9146L216.737 96.047L216.207 101.476L214.85 101.343L215.379 95.9146ZM212.135 101.078L214.85 101.343L214.717 102.7L212.003 102.436L212.135 101.078ZM221.543 95.146L225.615 95.5434L225.482 96.9006L221.411 96.5032L221.543 95.146ZM225.482 96.9006L226.839 97.0331L226.31 102.462L224.952 102.329L225.482 96.9006ZM220.053 96.3708L221.411 96.5032L220.881 101.932L219.524 101.8L220.053 96.3708ZM220.881 101.932L224.952 102.329L224.82 103.687L220.748 103.289L220.881 101.932ZM230.289 95.9996L231.646 96.1321L231.513 97.4893L232.871 97.6218L232.738 98.9789L231.381 98.8465L230.851 104.275L229.494 104.143L230.289 95.9996ZM233.003 96.2646L235.717 96.5295L235.585 97.8867L232.871 97.6218L233.003 96.2646ZM235.585 97.8867L236.942 98.0192L236.28 104.805L234.923 104.673L235.585 97.8867ZM242.973 98.6078L240.259 98.3429L240.391 96.9857L244.463 97.3831L243.801 104.169L246.515 104.434L246.383 105.791L239.597 105.129L239.729 103.772L242.443 104.037L242.973 98.6078ZM243.371 94.5363L244.728 94.6687L244.595 96.0259L243.238 95.8935L243.371 94.5363ZM250.759 95.2574L252.116 95.3899L251.719 99.4614L253.076 99.5939L252.944 100.951L251.586 100.819L251.322 103.533L252.679 103.665L252.546 105.023L251.189 104.89L251.057 106.247L249.699 106.115L250.759 95.2574ZM252.546 105.023L255.261 105.288L255.128 106.645L252.414 106.38L252.546 105.023ZM255.79 99.8588L257.148 99.9913L256.618 105.42L255.261 105.288L255.79 99.8588ZM253.209 98.2367L255.923 98.5017L255.79 99.8588L253.076 99.5939L253.209 98.2367ZM263.444 97.8656L260.729 97.6007L260.862 96.2435L264.933 96.6409L264.006 106.141L266.721 106.406L266.588 107.763L259.802 107.101L259.935 105.744L262.649 106.009L263.444 97.8656ZM272.057 100.076L276.129 100.474L275.996 101.831L271.924 101.434L272.057 100.076ZM270.567 101.301L271.924 101.434L271.792 102.791L275.864 103.188L275.996 101.831L277.353 101.963L277.088 104.678L271.66 104.148L271.395 106.862L270.037 106.73L270.567 101.301ZM271.395 106.862L275.466 107.26L275.334 108.617L271.262 108.22L271.395 106.862ZM275.599 105.903L276.956 106.035L276.823 107.392L275.466 107.26L275.599 105.903ZM290.905 101.916L292.262 102.049L292.13 103.406L293.487 103.538L293.355 104.895L291.998 104.763L291.733 107.477L293.09 107.61L292.957 108.967L291.6 108.834L291.203 112.906L289.846 112.774L290.905 101.916ZM293.62 102.181L296.334 102.446L296.202 103.803L293.487 103.538L293.62 102.181ZM296.202 103.803L297.559 103.936L297.029 109.364L295.672 109.232L296.202 103.803ZM292.957 108.967L295.672 109.232L295.539 110.589L292.825 110.324L292.957 108.967ZM300.611 106.974L301.968 107.106L301.703 109.821L300.346 109.688L300.611 106.974ZM301.703 109.821L304.417 110.085L304.285 111.443L301.57 111.178L301.703 109.821ZM304.55 108.728L305.907 108.861L306.039 107.504L301.968 107.106L302.1 105.749L306.172 106.146L306.304 104.789L307.662 104.922L306.999 111.708L305.642 111.575L305.774 110.218L304.417 110.085L304.55 108.728ZM302.365 103.035L306.437 103.432L306.304 104.789L302.233 104.392L302.365 103.035ZM313.825 104.153L313.693 105.51L315.05 105.643L314.917 107L313.56 106.868L313.163 110.939L315.877 111.204L315.745 112.561L310.316 112.031L310.449 110.674L311.806 110.807L312.336 105.378L310.978 105.245L311.111 103.888L313.825 104.153ZM317.897 104.551L317.764 105.908L315.05 105.643L315.182 104.286L317.897 104.551ZM320.816 108.946L322.173 109.078L321.908 111.793L320.551 111.66L320.816 108.946ZM321.908 111.793L324.623 112.058L324.49 113.415L321.776 113.15L321.908 111.793ZM324.755 110.7L326.113 110.833L326.245 109.476L322.173 109.078L322.306 107.721L326.377 108.119L326.51 106.761L327.867 106.894L327.205 113.68L325.848 113.547L325.98 112.19L324.623 112.058L324.755 110.7ZM322.571 105.007L326.642 105.404L326.51 106.761L322.438 106.364L322.571 105.007ZM343.041 104.265L344.398 104.397L344.134 107.111L348.205 107.509L348.073 108.866L344.001 108.469L343.471 113.897L342.114 113.765L342.644 108.336L341.287 108.204L341.419 106.846L342.776 106.979L343.041 104.265ZM343.471 113.897L346.186 114.162L346.053 115.519L343.339 115.254L343.471 113.897ZM346.318 112.805L347.675 112.938L347.543 114.295L346.186 114.162L346.318 112.805ZM354.236 108.097L354.104 109.455L355.461 109.587L355.329 110.944L353.971 110.812L353.574 114.883L356.288 115.148L356.156 116.505L350.727 115.976L350.86 114.618L352.217 114.751L352.747 109.322L351.389 109.19L351.522 107.833L354.236 108.097ZM358.308 108.495L358.175 109.852L355.461 109.587L355.594 108.23L358.308 108.495ZM361.227 112.89L362.585 113.023L362.32 115.737L360.962 115.605L361.227 112.89ZM362.32 115.737L365.034 116.002L364.901 117.359L362.187 117.094L362.32 115.737ZM365.166 114.645L366.524 114.777L366.656 113.42L362.585 113.023L362.717 111.665L366.789 112.063L366.921 110.706L368.278 110.838L367.616 117.624L366.259 117.492L366.391 116.134L365.034 116.002L365.166 114.645ZM362.982 108.951L367.053 109.348L366.921 110.706L362.849 110.308L362.982 108.951ZM371.992 107.09L373.35 107.223L372.952 111.294L374.309 111.427L374.177 112.784L372.82 112.651L372.555 115.366L373.912 115.498L373.78 116.856L372.422 116.723L372.29 118.08L370.933 117.948L371.992 107.09ZM373.78 116.856L376.494 117.12L376.361 118.478L373.647 118.213L373.78 116.856ZM377.024 111.692L378.381 111.824L377.851 117.253L376.494 117.12L377.024 111.692ZM374.442 110.07L377.156 110.335L377.024 111.692L374.309 111.427L374.442 110.07ZM381.433 114.862L382.79 114.995L382.525 117.709L381.168 117.577L381.433 114.862ZM382.525 117.709L385.239 117.974L385.107 119.331L382.393 119.066L382.525 117.709ZM385.372 116.617L386.729 116.749L386.862 115.392L382.79 114.995L382.923 113.638L386.994 114.035L387.127 112.678L388.484 112.81L387.821 119.596L386.464 119.464L386.597 118.107L385.239 117.974L385.372 116.617ZM383.187 110.923L387.259 111.321L387.127 112.678L383.055 112.28L383.187 110.923ZM396.27 109.46L397.627 109.592L397.494 110.949L396.137 110.817L396.27 109.46ZM395.872 113.531L393.158 113.266L393.29 111.909L397.362 112.307L396.435 121.807L395.077 121.675L395.872 113.531ZM395.077 121.675L394.945 123.032L392.23 122.767L392.363 121.41L395.077 121.675ZM392.363 121.41L391.006 121.277L391.138 119.92L392.495 120.052L392.363 121.41ZM401.638 116.834L402.996 116.967L402.731 119.681L401.373 119.549L401.638 116.834ZM402.731 119.681L405.445 119.946L405.313 121.303L402.598 121.038L402.731 119.681ZM405.578 118.589L406.935 118.721L407.067 117.364L402.996 116.967L403.128 115.61L407.2 116.007L407.332 114.65L408.689 114.782L408.027 121.568L406.67 121.436L406.802 120.079L405.445 119.946L405.578 118.589ZM403.393 112.895L407.465 113.293L407.332 114.65L403.261 114.253L403.393 112.895ZM414.853 114.014L414.72 115.371L416.078 115.504L415.945 116.861L414.588 116.728L414.191 120.8L416.905 121.065L416.773 122.422L411.344 121.892L411.476 120.535L412.833 120.667L413.363 115.239L412.006 115.106L412.139 113.749L414.853 114.014ZM418.925 114.411L418.792 115.768L416.078 115.504L416.21 114.146L418.925 114.411ZM436.816 124.891C436 124.811 435.248 124.582 434.562 124.203C433.875 123.835 433.283 123.355 432.788 122.764C432.304 122.165 431.943 121.491 431.704 120.745C431.476 119.999 431.401 119.218 431.481 118.402C431.562 117.576 431.786 116.824 432.153 116.146C432.532 115.46 433.016 114.874 433.606 114.389C434.207 113.895 434.88 113.534 435.626 113.305C436.372 113.067 437.154 112.987 437.97 113.067C438.796 113.147 439.547 113.377 440.224 113.754C440.911 114.123 441.497 114.607 441.981 115.207C442.476 115.797 442.838 116.466 443.066 117.212C443.306 117.948 443.385 118.73 443.305 119.556C443.225 120.372 442.996 121.123 442.618 121.81C442.249 122.497 441.764 123.088 441.164 123.582C440.574 124.067 439.906 124.424 439.16 124.652C438.423 124.892 437.642 124.971 436.816 124.891Z" fill="#11AD07"/>
<g opacity="0.5">
<path d="M38.1253 108.168L43.5541 108.698L43.4216 110.055L39.35 109.658L38.9526 113.729L43.0242 114.127L42.7593 116.841L41.4021 116.708L41.5345 115.351L38.8202 115.086L38.4228 119.158L37.0656 119.025L38.1253 108.168ZM43.4216 110.055L44.7788 110.187L44.3814 114.259L43.0242 114.127L43.4216 110.055ZM42.7593 116.841L44.1164 116.973L43.8515 119.688L42.4943 119.555L42.7593 116.841ZM49.3203 112.001L53.3919 112.398L53.2594 113.755L49.1879 113.358L49.3203 112.001ZM47.8307 113.226L49.1879 113.358L49.0554 114.715L53.127 115.113L53.2594 113.755L54.6166 113.888L54.3517 116.602L48.9229 116.072L48.658 118.787L47.3008 118.654L47.8307 113.226ZM48.658 118.787L52.7296 119.184L52.5971 120.541L48.5255 120.144L48.658 118.787ZM52.862 117.827L54.2192 117.959L54.0868 119.317L52.7296 119.184L52.862 117.827ZM62.8323 120.17L62.6999 121.527L58.6283 121.13L58.7608 119.773L62.8323 120.17ZM58.7608 119.773L57.4036 119.64L57.5361 118.283L58.8932 118.416L58.7608 119.773ZM63.4947 113.384L63.3622 114.741L59.2906 114.344L59.4231 112.987L63.4947 113.384ZM57.9335 114.212L59.2906 114.344L59.1582 115.701L57.801 115.569L57.9335 114.212ZM59.1582 115.701L63.2297 116.099L63.0973 117.456L59.0257 117.058L59.1582 115.701ZM63.0973 117.456L64.4545 117.588L64.1895 120.303L62.8323 120.17L63.0973 117.456ZM63.3622 114.741L64.7194 114.874L64.5869 116.231L63.2297 116.099L63.3622 114.741ZM68.1687 113.84L69.5259 113.973L69.3934 115.33L70.7506 115.463L70.6181 116.82L69.261 116.687L68.996 119.402L70.3532 119.534L70.2207 120.891L68.8635 120.759L68.4661 124.83L67.109 124.698L68.1687 113.84ZM70.8831 114.105L73.5974 114.37L73.465 115.728L70.7506 115.463L70.8831 114.105ZM73.465 115.728L74.8222 115.86L74.2923 121.289L72.9351 121.156L73.465 115.728ZM70.2207 120.891L72.9351 121.156L72.8026 122.513L70.0883 122.249L70.2207 120.891ZM78.2715 114.827L79.6287 114.959L78.9663 121.745L77.6091 121.612L78.2715 114.827ZM78.9663 121.745L81.6807 122.01L81.5482 123.367L78.8339 123.102L78.9663 121.745ZM83.7002 115.356L85.0574 115.489L84.2626 123.632L82.9054 123.5L83.0379 122.142L81.6807 122.01L81.8132 120.653L83.1704 120.785L83.7002 115.356ZM89.7314 115.945L93.803 116.342L93.6705 117.7L89.599 117.302L89.7314 115.945ZM88.2418 117.17L89.599 117.302L89.4665 118.659L93.5381 119.057L93.6705 117.7L95.0277 117.832L94.7628 120.547L89.334 120.017L89.0691 122.731L87.7119 122.599L88.2418 117.17ZM89.0691 122.731L93.1407 123.128L93.0082 124.486L88.9366 124.088L89.0691 122.731ZM93.2731 121.771L94.6303 121.904L94.4978 123.261L93.1407 123.128L93.2731 121.771ZM103.243 124.115L103.111 125.472L99.0394 125.074L99.1719 123.717L103.243 124.115ZM99.1719 123.717L97.8147 123.585L97.9471 122.227L99.3043 122.36L99.1719 123.717ZM103.906 117.329L103.773 118.686L99.7017 118.288L99.8342 116.931L103.906 117.329ZM98.3445 118.156L99.7017 118.288L99.5693 119.646L98.2121 119.513L98.3445 118.156ZM99.5693 119.646L103.641 120.043L103.508 121.4L99.4368 121.003L99.5693 119.646ZM103.508 121.4L104.866 121.533L104.601 124.247L103.243 124.115L103.508 121.4ZM103.773 118.686L105.13 118.818L104.998 120.175L103.641 120.043L103.773 118.686ZM110.202 115.203L111.559 115.335L111.294 118.05L115.366 118.447L115.233 119.804L111.162 119.407L110.632 124.836L109.275 124.703L109.805 119.274L108.447 119.142L108.58 117.785L109.937 117.917L110.202 115.203ZM110.632 124.836L113.346 125.101L113.214 126.458L110.499 126.193L110.632 124.836ZM113.479 123.743L114.836 123.876L114.703 125.233L113.346 125.101L113.479 123.743ZM118.285 122.842L119.642 122.975L119.377 125.689L118.02 125.557L118.285 122.842ZM119.377 125.689L122.092 125.954L121.959 127.311L119.245 127.046L119.377 125.689ZM122.224 124.597L123.581 124.729L123.714 123.372L119.642 122.975L119.775 121.618L123.846 122.015L123.979 120.658L125.336 120.79L124.674 127.576L123.317 127.444L123.449 126.087L122.092 125.954L122.224 124.597ZM120.04 118.903L124.111 119.301L123.979 120.658L119.907 120.26L120.04 118.903Z" fill="#735C00"/>
</g>
<path d="M360.12 147.816L361.477 147.949L361.344 149.306L366.773 149.836L366.641 151.193L359.855 150.531L360.12 147.816ZM366.211 141.56L362.139 141.163L362.272 139.806L366.343 140.203L366.211 141.56ZM366.211 141.56L367.568 141.693L367.303 144.407L365.946 144.275L366.211 141.56ZM361.609 146.592L362.967 146.724L362.834 148.081L361.477 147.949L361.609 146.592ZM360.782 141.03L362.139 141.163L362.007 142.52L360.65 142.388L360.782 141.03ZM364.589 144.142L365.946 144.275L365.813 145.632L364.456 145.499L364.589 144.142ZM363.099 145.367L364.456 145.499L364.324 146.857L362.967 146.724L363.099 145.367ZM375.089 141.057L377.803 141.322L376.744 152.179L375.386 152.047L375.651 149.332L370.223 148.802L370.62 144.731L371.977 144.863L371.712 147.578L375.784 147.975L376.314 142.546L374.956 142.414L375.089 141.057ZM373.599 142.281L374.956 142.414L374.824 143.771L373.467 143.639L373.599 142.281ZM372.11 143.506L373.467 143.639L373.334 144.996L371.977 144.863L372.11 143.506ZM380.59 147.074L387.376 147.736L387.244 149.094L380.458 148.431L380.59 147.074ZM395.294 143.029L398.009 143.294L396.949 154.151L395.592 154.019L395.857 151.304L390.428 150.775L390.825 146.703L392.183 146.836L391.918 149.55L395.989 149.947L396.519 144.519L395.162 144.386L395.294 143.029ZM393.805 144.254L395.162 144.386L395.03 145.743L393.672 145.611L393.805 144.254ZM392.315 145.478L393.672 145.611L393.54 146.968L392.183 146.836L392.315 145.478ZM401.193 144.975L402.55 145.107L402.285 147.822L400.928 147.689L401.193 144.975ZM406.622 145.505L402.55 145.107L402.683 143.75L406.754 144.147L406.622 145.505ZM406.622 145.505L407.979 145.637L407.714 148.351L406.357 148.219L406.622 145.505ZM402.285 147.822L406.357 148.219L406.225 149.576L402.153 149.179L402.285 147.822ZM406.225 149.576L407.582 149.709L407.184 153.78L405.827 153.648L406.225 149.576ZM400.796 149.046L402.153 149.179L401.756 153.25L400.398 153.118L400.796 149.046ZM405.827 153.648L405.695 155.005L401.623 154.608L401.756 153.25L405.827 153.648ZM421.531 145.59L422.888 145.722L422.491 149.794L423.848 149.926L423.716 151.283L422.359 151.151L421.829 156.58L420.471 156.447L421.531 145.59ZM426.563 150.191L427.92 150.324L427.257 157.11L425.9 156.977L426.563 150.191ZM423.981 148.569L426.695 148.834L426.563 150.191L423.848 149.926L423.981 148.569ZM434.083 149.555L433.951 150.912L435.308 151.045L435.176 152.402L433.818 152.269L433.421 156.341L436.135 156.606L436.003 157.963L430.574 157.433L430.707 156.076L432.064 156.209L432.594 150.78L431.237 150.647L431.369 149.29L434.083 149.555ZM438.155 149.952L438.023 151.31L435.308 151.045L435.441 149.688L438.155 149.952ZM446.238 157.592L446.106 158.949L442.034 158.552L442.167 157.195L446.238 157.592ZM442.167 157.195L440.809 157.062L440.942 155.705L442.299 155.837L442.167 157.195ZM446.901 150.806L446.768 152.163L442.697 151.766L442.829 150.409L446.901 150.806ZM441.339 151.633L442.697 151.766L442.564 153.123L441.207 152.991L441.339 151.633ZM442.564 153.123L446.636 153.52L446.503 154.878L442.432 154.48L442.564 153.123ZM446.503 154.878L447.86 155.01L447.595 157.724L446.238 157.592L446.503 154.878ZM446.768 152.163L448.125 152.296L447.993 153.653L446.636 153.52L446.768 152.163Z" fill="#735C00"/>
<g opacity="0.5">
<path d="M35.296 151.137L40.7248 151.667L40.5923 153.024L33.8064 152.362L34.2038 148.29L35.5609 148.423L35.296 151.137ZM38.6727 144.616L40.0299 144.749L39.8974 146.106L38.5403 145.973L38.6727 144.616ZM35.6934 147.066L37.0506 147.198L36.9181 148.555L35.5609 148.423L35.6934 147.066ZM41.652 142.167L41.3871 144.881L40.0299 144.749L40.1624 143.391L34.7336 142.862L34.8661 141.504L41.652 142.167ZM37.1831 145.841L38.5403 145.973L38.4078 147.33L37.0506 147.198L37.1831 145.841ZM46.0611 145.337L50.1327 145.735L50.0002 147.092L45.9287 146.694L46.0611 145.337ZM50.0002 147.092L51.3574 147.224L50.8275 152.653L49.4703 152.521L50.0002 147.092ZM44.5715 146.562L45.9287 146.694L45.3988 152.123L44.0416 151.991L44.5715 146.562ZM45.3988 152.123L49.4703 152.521L49.3379 153.878L45.2663 153.48L45.3988 152.123ZM54.8067 146.191L56.1639 146.323L56.0314 147.68L57.3886 147.813L57.2562 149.17L55.899 149.038L55.3691 154.466L54.0119 154.334L54.8067 146.191ZM57.5211 146.456L60.2355 146.721L60.103 148.078L57.3886 147.813L57.5211 146.456ZM60.103 148.078L61.4602 148.21L60.7978 154.996L59.4407 154.864L60.103 148.078ZM64.5121 151.248L65.8693 151.381L65.6043 154.095L64.2471 153.963L64.5121 151.248ZM65.6043 154.095L68.3187 154.36L68.1862 155.717L65.4719 155.452L65.6043 154.095ZM68.4512 153.003L69.8084 153.136L69.9408 151.778L65.8693 151.381L66.0017 150.024L70.0733 150.421L70.2058 149.064L71.5629 149.196L70.9006 155.982L69.5434 155.85L69.6759 154.493L68.3187 154.36L68.4512 153.003ZM66.2667 147.309L70.3382 147.707L70.2058 149.064L66.1342 148.667L66.2667 147.309ZM85.38 146.435L86.7371 146.567L86.3397 150.639L87.6969 150.771L87.5645 152.128L86.2073 151.996L85.6774 157.425L84.3202 157.292L85.38 146.435ZM90.4113 151.036L91.7685 151.169L91.1062 157.955L89.749 157.822L90.4113 151.036ZM87.8294 149.414L90.5438 149.679L90.4113 151.036L87.6969 150.771L87.8294 149.414ZM96.575 150.268L100.647 150.665L100.514 152.022L96.4425 151.625L96.575 150.268ZM100.514 152.022L101.871 152.155L101.341 157.583L99.9842 157.451L100.514 152.022ZM95.0853 151.492L96.4425 151.625L95.9127 157.054L94.5555 156.921L95.0853 151.492ZM95.9127 157.054L99.9842 157.451L99.8517 158.808L95.7802 158.411L95.9127 157.054ZM108.035 151.386L107.902 152.743L109.26 152.876L109.127 154.233L107.77 154.101L107.373 158.172L110.087 158.437L109.955 159.794L104.526 159.264L104.658 157.907L106.015 158.04L106.545 152.611L105.188 152.478L105.321 151.121L108.035 151.386ZM112.107 151.784L111.974 153.141L109.26 152.876L109.392 151.519L112.107 151.784ZM115.026 156.179L116.383 156.311L116.118 159.026L114.761 158.893L115.026 156.179ZM116.118 159.026L118.833 159.291L118.7 160.648L115.986 160.383L116.118 159.026ZM118.965 157.933L120.322 158.066L120.455 156.709L116.383 156.311L116.516 154.954L120.587 155.352L120.72 153.994L122.077 154.127L121.414 160.913L120.057 160.78L120.19 159.423L118.833 159.291L118.965 157.933ZM116.781 152.24L120.852 152.637L120.72 153.994L116.648 153.597L116.781 152.24ZM128.24 153.358L128.108 154.715L129.465 154.848L129.333 156.205L127.976 156.073L127.578 160.144L130.293 160.409L130.16 161.766L124.731 161.236L124.864 159.879L126.221 160.012L126.751 154.583L125.394 154.451L125.526 153.093L128.24 153.358ZM132.312 153.756L132.18 155.113L129.465 154.848L129.598 153.491L132.312 153.756ZM138.211 155.702L135.496 155.437L135.629 154.079L139.7 154.477L139.038 161.263L141.752 161.528L141.62 162.885L134.834 162.223L134.967 160.865L137.681 161.13L138.211 155.702ZM138.608 151.63L139.965 151.762L139.833 153.12L138.476 152.987L138.608 151.63ZM145.334 159.137L146.691 159.27L146.427 161.984L145.069 161.851L145.334 159.137ZM146.427 161.984L149.141 162.249L149.008 163.606L146.294 163.341L146.427 161.984ZM149.273 160.892L150.631 161.024L150.763 159.667L146.691 159.27L146.824 157.912L150.895 158.31L151.028 156.953L152.385 157.085L151.723 163.871L150.366 163.738L150.498 162.381L149.141 162.249L149.273 160.892ZM147.089 155.198L151.16 155.595L151.028 156.953L146.956 156.555L147.089 155.198Z" fill="#735C00"/>
</g>
<path d="M296.812 168.441L298.169 168.574L297.374 176.717L296.017 176.584L296.812 168.441ZM297.374 176.717L301.445 177.114L301.313 178.471L297.241 178.074L297.374 176.717ZM301.71 174.4L300.353 174.267L300.486 172.91L303.2 173.175L302.803 177.247L301.445 177.114L301.71 174.4ZM298.301 167.216L302.373 167.614L302.24 168.971L298.169 168.574L298.301 167.216ZM302.24 168.971L303.597 169.103L303.465 170.461L302.108 170.328L302.24 168.971ZM307.047 168.07L308.404 168.202L308.139 170.917L309.496 171.049L309.364 172.406L308.007 172.274L307.344 179.06L305.987 178.927L307.047 168.07ZM312.078 172.671L310.721 172.539L310.853 171.182L312.211 171.314L312.475 168.6L313.833 168.732L312.773 179.59L311.416 179.457L312.078 172.671ZM309.364 172.406L310.721 172.539L310.456 175.253L309.099 175.121L309.364 172.406ZM317.15 169.056L323.935 169.718L323.803 171.076L321.089 170.811L320.161 180.311L318.804 180.178L319.731 170.678L317.017 170.413L317.15 169.056ZM332.151 176.001L332.019 177.358L327.947 176.961L328.08 175.603L332.151 176.001ZM337.223 172.385L338.58 172.518L338.447 173.875L337.09 173.743L337.223 172.385ZM338.712 171.161L342.784 171.558L342.651 172.915L338.58 172.518L338.712 171.161ZM342.651 172.915L344.009 173.048L343.744 175.762L342.386 175.63L342.651 172.915ZM339.672 175.365L342.386 175.63L342.254 176.987L339.54 176.722L339.672 175.365ZM342.254 176.987L343.611 177.119L343.214 181.191L341.857 181.058L342.254 176.987ZM341.857 181.058L341.724 182.416L337.653 182.018L337.785 180.661L341.857 181.058ZM337.785 180.661L336.428 180.529L336.56 179.171L337.917 179.304L337.785 180.661ZM357.296 175.715L358.653 175.847L358.388 178.562L362.459 178.959L362.724 176.245L364.082 176.377L363.287 184.52L361.93 184.388L362.327 180.316L358.255 179.919L357.858 183.99L356.501 183.858L357.296 175.715ZM360.275 173.265L361.632 173.398L361.5 174.755L360.143 174.622L360.275 173.265ZM358.785 174.49L360.143 174.622L360.01 175.98L358.653 175.847L358.785 174.49ZM361.5 174.755L362.857 174.887L362.724 176.245L361.367 176.112L361.5 174.755ZM370.113 176.966L369.98 178.323L371.338 178.455L371.205 179.813L369.848 179.68L369.45 183.752L372.165 184.017L372.032 185.374L366.604 184.844L366.736 183.487L368.093 183.619L368.623 178.19L367.266 178.058L367.398 176.701L370.113 176.966ZM374.184 177.363L374.052 178.72L371.338 178.455L371.47 177.098L374.184 177.363ZM378.858 177.819L381.573 178.084L381.44 179.441L378.726 179.177L378.858 177.819ZM377.369 179.044L378.726 179.177L378.196 184.605L376.839 184.473L377.369 179.044ZM378.196 184.605L380.91 184.87L380.778 186.227L378.064 185.962L378.196 184.605ZM377.931 187.32L382.003 187.717L381.87 189.074L377.799 188.677L377.931 187.32ZM381.043 183.513L382.4 183.645L382.665 180.931L381.308 180.799L381.44 179.441L382.798 179.574L382.93 178.217L384.287 178.349L383.36 187.85L382.003 187.717L382.268 185.003L380.91 184.87L381.043 183.513ZM388.961 178.805L393.033 179.203L392.9 180.56L388.829 180.163L388.961 178.805ZM387.472 180.03L388.829 180.163L388.696 181.52L392.768 181.917L392.9 180.56L394.257 180.692L393.993 183.407L388.564 182.877L388.299 185.591L386.942 185.459L387.472 180.03ZM388.299 185.591L392.37 185.989L392.238 187.346L388.166 186.949L388.299 185.591ZM392.503 184.632L393.86 184.764L393.728 186.121L392.37 185.989L392.503 184.632ZM397.707 179.659L399.064 179.791L398.931 181.149L400.289 181.281L400.156 182.638L398.799 182.506L398.269 187.935L396.912 187.802L397.707 179.659ZM400.421 179.924L403.136 180.189L403.003 181.546L400.289 181.281L400.421 179.924ZM403.003 181.546L404.36 181.679L403.698 188.464L402.341 188.332L403.003 181.546ZM409.432 178.063L410.789 178.196L410.524 180.91L414.595 181.307L414.463 182.665L410.391 182.267L409.862 187.696L408.504 187.563L409.034 182.135L407.677 182.002L407.81 180.645L409.167 180.778L409.432 178.063ZM409.862 187.696L412.576 187.961L412.443 189.318L409.729 189.053L409.862 187.696ZM412.708 186.604L414.066 186.736L413.933 188.093L412.576 187.961L412.708 186.604ZM420.494 183.253L417.78 182.988L417.912 181.631L421.984 182.029L421.322 188.814L424.036 189.079L423.903 190.437L417.118 189.774L417.25 188.417L419.964 188.682L420.494 183.253ZM420.892 179.182L422.249 179.314L422.116 180.671L420.759 180.539L420.892 179.182ZM428.015 182.617L429.372 182.75L429.24 184.107L430.597 184.239L430.465 185.597L429.107 185.464L428.577 190.893L427.22 190.76L428.015 182.617ZM430.729 182.882L433.444 183.147L433.311 184.504L430.597 184.239L430.729 182.882ZM433.311 184.504L434.669 184.637L434.006 191.423L432.649 191.29L433.311 184.504ZM437.72 187.675L439.078 187.807L438.813 190.522L437.456 190.389L437.72 187.675ZM438.813 190.522L441.527 190.787L441.395 192.144L438.68 191.879L438.813 190.522ZM441.66 189.429L443.017 189.562L443.149 188.205L439.078 187.807L439.21 186.45L443.282 186.848L443.414 185.49L444.771 185.623L444.109 192.409L442.752 192.276L442.884 190.919L441.527 190.787L441.66 189.429ZM439.475 183.736L443.547 184.133L443.414 185.49L439.343 185.093L439.475 183.736Z" fill="#735C00"/>
<g opacity="0.5">
<path d="M31.6161 174.851L37.0448 175.381L36.9124 176.738L32.8408 176.341L32.4434 180.412L36.515 180.81L36.3825 182.167L32.3109 181.769L31.9135 185.841L30.5564 185.708L31.6161 174.851ZM36.9124 176.738L38.2696 176.871L37.8722 180.942L36.515 180.81L36.9124 176.738ZM44.1683 178.816L44.0358 180.174L45.393 180.306L45.2606 181.663L43.9034 181.531L43.506 185.602L46.2203 185.867L46.0879 187.224L40.6591 186.695L40.7916 185.337L42.1488 185.47L42.6787 180.041L41.3215 179.909L41.4539 178.551L44.1683 178.816ZM48.2399 179.214L48.1074 180.571L45.393 180.306L45.5255 178.949L48.2399 179.214ZM52.9139 179.67L56.9855 180.067L56.853 181.425L52.7814 181.027L52.9139 179.67ZM51.4242 180.895L52.7814 181.027L52.649 182.384L56.7205 182.782L56.853 181.425L58.2102 181.557L57.9452 184.271L52.5165 183.742L52.2516 186.456L50.8944 186.323L51.4242 180.895ZM52.2516 186.456L56.3231 186.853L56.1907 188.211L52.1191 187.813L52.2516 186.456ZM56.4556 185.496L57.8128 185.629L57.6803 186.986L56.3231 186.853L56.4556 185.496ZM62.8842 182.013L61.527 181.881L61.6595 180.524L63.0167 180.656L63.1491 179.299L64.5063 179.431L64.3739 180.789L68.4454 181.186L68.3129 182.543L64.2414 182.146L63.7115 187.574L66.4259 187.839L66.2934 189.197L60.8647 188.667L60.9971 187.31L62.3543 187.442L62.8842 182.013ZM64.6388 178.074L68.7104 178.472L68.5779 179.829L64.5063 179.431L64.6388 178.074ZM73.1194 181.642L77.191 182.04L77.0585 183.397L72.987 182.999L73.1194 181.642ZM71.6298 182.867L72.987 182.999L72.8545 184.357L76.9261 184.754L77.0585 183.397L78.4157 183.529L78.1508 186.244L72.722 185.714L72.4571 188.428L71.0999 188.296L71.6298 182.867ZM72.4571 188.428L76.5287 188.825L76.3962 190.183L72.3246 189.785L72.4571 188.428ZM76.6611 187.468L78.0183 187.601L77.8859 188.958L76.5287 188.825L76.6611 187.468ZM84.5794 182.761L84.4469 184.118L85.8041 184.25L85.6717 185.608L84.3145 185.475L83.9171 189.547L86.6314 189.812L86.499 191.169L81.0702 190.639L81.2027 189.282L82.5599 189.414L83.0897 183.985L81.7326 183.853L81.865 182.496L84.5794 182.761ZM88.651 183.158L88.5185 184.515L85.8041 184.25L85.9366 182.893L88.651 183.158ZM94.5497 185.104L91.8353 184.839L91.9678 183.482L96.0394 183.879L95.377 190.665L98.0914 190.93L97.9589 192.287L91.173 191.625L91.3055 190.268L94.0198 190.533L94.5497 185.104ZM94.9471 181.032L96.3043 181.165L96.1718 182.522L94.8146 182.39L94.9471 181.032ZM107.764 182.283L109.121 182.416L108.062 193.273L106.705 193.141L106.837 191.784L105.48 191.651L105.612 190.294L106.969 190.426L107.234 187.712L105.877 187.58L106.01 186.222L107.367 186.355L107.764 182.283ZM105.48 191.651L105.347 193.008L102.633 192.743L102.765 191.386L105.48 191.651ZM102.765 191.386L101.408 191.254L101.938 185.825L103.295 185.958L102.765 191.386ZM106.01 186.222L103.295 185.958L103.428 184.6L106.142 184.865L106.01 186.222ZM113.531 185.586L117.602 185.984L117.47 187.341L113.398 186.944L113.531 185.586ZM117.47 187.341L118.827 187.473L118.297 192.902L116.94 192.77L117.47 187.341ZM112.041 186.811L113.398 186.944L112.868 192.372L111.511 192.24L112.041 186.811ZM112.868 192.372L116.94 192.77L116.807 194.127L112.736 193.73L112.868 192.372Z" fill="#735C00"/>
</g>
<path d="M273.656 199.845L275.013 199.977L274.218 208.12L272.861 207.988L273.656 199.845ZM274.218 208.12L278.29 208.518L278.157 209.875L274.086 209.478L274.218 208.12ZM278.422 207.161L279.78 207.293L279.647 208.65L278.29 208.518L278.422 207.161ZM275.146 198.62L279.217 199.018L279.085 200.375L275.013 199.977L275.146 198.62ZM279.085 200.375L280.442 200.507L280.309 201.864L278.952 201.732L279.085 200.375ZM284.983 202.321L289.055 202.718L288.923 204.075L284.851 203.678L284.983 202.321ZM288.923 204.075L290.28 204.208L289.75 209.636L288.393 209.504L288.923 204.075ZM283.494 203.545L284.851 203.678L284.321 209.107L282.964 208.974L283.494 203.545ZM284.321 209.107L288.393 209.504L288.26 210.861L284.189 210.464L284.321 209.107ZM296.443 203.439L296.311 204.796L297.668 204.929L297.536 206.286L296.179 206.154L295.781 210.225L298.495 210.49L298.363 211.847L292.934 211.317L293.067 209.96L294.424 210.093L294.954 204.664L293.597 204.531L293.729 203.174L296.443 203.439ZM300.515 203.837L300.383 205.194L297.668 204.929L297.801 203.572L300.515 203.837ZM306.546 204.425L306.414 205.782L307.771 205.915L307.638 207.272L306.281 207.14L305.884 211.211L308.598 211.476L308.466 212.833L303.037 212.303L303.17 210.946L304.527 211.079L305.057 205.65L303.699 205.517L303.832 204.16L306.546 204.425ZM310.618 204.823L310.485 206.18L307.771 205.915L307.903 204.558L310.618 204.823ZM315.292 205.279L319.363 205.676L319.231 207.033L315.159 206.636L315.292 205.279ZM313.802 206.504L315.159 206.636L315.027 207.993L319.098 208.391L319.231 207.033L320.588 207.166L320.323 209.88L314.894 209.35L314.629 212.065L313.272 211.932L313.802 206.504ZM314.629 212.065L318.701 212.462L318.569 213.819L314.497 213.422L314.629 212.065ZM318.834 211.105L320.191 211.237L320.058 212.595L318.701 212.462L318.834 211.105ZM325.395 206.265L329.466 206.662L329.334 208.02L325.262 207.622L325.395 206.265ZM329.334 208.02L330.691 208.152L330.161 213.581L328.804 213.448L329.334 208.02ZM323.905 207.49L325.262 207.622L324.732 213.051L323.375 212.918L323.905 207.49ZM324.732 213.051L328.804 213.448L328.671 214.805L324.6 214.408L324.732 213.051ZM348.447 207.145L349.804 207.277L349.539 209.992L348.182 209.859L348.447 207.145ZM343.581 214.891L344.938 215.023L344.673 217.737L343.316 217.605L343.581 214.891ZM345.203 212.309L346.56 212.441L346.295 215.155L344.938 215.023L345.203 212.309ZM346.825 209.727L348.182 209.859L347.917 212.574L346.56 212.441L346.825 209.727ZM350.069 204.563L351.426 204.695L351.161 207.41L349.804 207.277L350.069 204.563ZM364.713 207.362L366.071 207.495L365.143 216.995L370.572 217.525L370.44 218.882L363.654 218.22L364.713 207.362ZM377.133 212.685L374.419 212.42L374.551 211.063L378.623 211.46L377.96 218.246L380.675 218.511L380.542 219.868L373.756 219.206L373.889 217.849L376.603 218.114L377.133 212.685ZM377.531 208.613L378.888 208.746L378.755 210.103L377.398 209.971L377.531 208.613ZM384.654 212.049L386.011 212.181L385.879 213.539L387.236 213.671L387.103 215.028L385.746 214.896L385.216 220.324L383.859 220.192L384.654 212.049ZM387.368 212.314L390.083 212.579L389.95 213.936L387.236 213.671L387.368 212.314ZM389.95 213.936L391.307 214.068L390.645 220.854L389.288 220.722L389.95 213.936ZM395.022 210.321L396.379 210.453L395.717 217.239L397.074 217.371L397.206 216.014L398.563 216.147L398.298 218.861L395.584 218.596L395.319 221.311L393.962 221.178L395.022 210.321ZM400.186 213.565L401.543 213.697L401.41 215.054L400.053 214.922L400.186 213.565ZM398.696 214.79L400.053 214.922L399.921 216.279L398.563 216.147L398.696 214.79ZM398.298 218.861L399.656 218.994L399.523 220.351L398.166 220.218L398.298 218.861ZM399.523 220.351L400.88 220.483L400.748 221.84L399.391 221.708L399.523 220.351ZM406.217 214.153L410.288 214.551L410.156 215.908L406.084 215.511L406.217 214.153ZM404.727 215.378L406.084 215.511L405.952 216.868L410.023 217.265L410.156 215.908L411.513 216.041L411.248 218.755L405.819 218.225L405.554 220.939L404.197 220.807L404.727 215.378ZM405.554 220.939L409.626 221.337L409.494 222.694L405.422 222.297L405.554 220.939ZM409.758 219.98L411.116 220.112L410.983 221.469L409.626 221.337L409.758 219.98ZM420.656 212.823L422.013 212.955L420.953 223.813L419.596 223.68L419.729 222.323L418.372 222.19L418.504 220.833L419.861 220.966L420.126 218.251L418.769 218.119L418.901 216.762L420.259 216.894L420.656 212.823ZM418.372 222.19L418.239 223.548L415.525 223.283L415.657 221.926L418.372 222.19ZM415.657 221.926L414.3 221.793L414.83 216.364L416.187 216.497L415.657 221.926ZM418.901 216.762L416.187 216.497L416.32 215.14L419.034 215.404L418.901 216.762ZM427.117 223.044L427.912 214.901L425.198 214.636L425.33 213.279L432.116 213.941L431.984 215.298L429.269 215.033L428.474 223.177L431.189 223.441L431.056 224.799L424.27 224.136L424.403 222.779L427.117 223.044ZM435.168 216.979L436.525 217.112L436.393 218.469L437.75 218.601L437.617 219.959L436.26 219.826L435.73 225.255L434.373 225.122L435.168 216.979ZM437.882 217.244L440.597 217.509L440.464 218.866L437.75 218.601L437.882 217.244ZM440.464 218.866L441.821 218.999L441.159 225.785L439.802 225.652L440.464 218.866Z" fill="#735C00"/>
<path d="M376.752 279.173L455.325 297.655L359.443 314.053L376.752 279.173Z" fill="#D3B84D"/>
</g>
<defs>
<filter id="filter0_d_481_191568" x="0" y="0" width="488.063" height="330.875" filterUnits="userSpaceOnUse" color-interpolation-filters="sRGB">
<feFlood flood-opacity="0" result="BackgroundImageFix"/>
<feColorMatrix in="SourceAlpha" type="matrix" values="0 0 0 0 0 0 0 0 0 0 0 0 0 0 0 0 0 0 127 0" result="hardAlpha"/>
<feOffset dx="4" dy="4"/>
<feGaussianBlur stdDeviation="2"/>
<feComposite in2="hardAlpha" operator="out"/>
<feColorMatrix type="matrix" values="0 0 0 0 0.537692 0 0 0 0 0.531815 0 0 0 0 0.531815 0 0 0 0.05 0"/>
<feBlend mode="normal" in2="BackgroundImageFix" result="effect1_dropShadow_481_191568"/>
<feBlend mode="normal" in="SourceGraphic" in2="effect1_dropShadow_481_191568" result="shape"/>
</filter>
</defs>
</svg>
